<?xml version="1.0" encoding="UTF-8"?>
<svg xmlns="http://www.w3.org/2000/svg" xmlns:xlink="http://www.w3.org/1999/xlink" width="180px" height="180px" viewBox="0 0 180 180" version="1.1">
<g id="surface1">
<path style=" stroke:none;fill-rule:nonzero;fill:rgb(0%,0%,0%);fill-opacity:1;" d="M 49.507812 1.40625 L 129.796875 1.40625 C 156.726562 1.40625 178.59375 23.273438 178.59375 50.203125 L 178.59375 130.492188 C 178.59375 157.042969 157.035156 178.59375 130.492188 178.59375 L 49.515625 178.59375 C 22.964844 178.59375 1.414062 157.035156 1.414062 130.492188 L 1.414062 49.515625 C 1.40625 22.964844 22.964844 1.40625 49.507812 1.40625 Z M 49.507812 1.40625 "/>
<path style=" stroke:none;fill-rule:nonzero;fill:rgb(100%,100%,100%);fill-opacity:1;" d="M 42.167969 104.230469 C 43.191406 104.582031 44.242188 104.886719 45.246094 105.300781 C 52.769531 108.40625 60.363281 111.375 66.832031 116.527344 C 69.003906 118.257812 71.242188 119.910156 73.457031 121.585938 C 78.230469 125.183594 83.601562 127.644531 89.136719 129.804688 C 90.015625 130.148438 90.894531 130.554688 91.667969 131.082031 C 94.351562 132.898438 97.03125 131.957031 98.773438 130.164062 C 105.714844 123.03125 111.683594 115.117188 117.78125 107.289062 C 120.894531 103.289062 119.742188 98.929688 115.777344 95.808594 C 109.582031 90.933594 103.410156 86.027344 97.082031 81.335938 C 93.390625 78.601562 89.410156 76.269531 85.554688 73.75 C 85.210938 73.527344 84.839844 73.328125 84.523438 73.0625 C 83.441406 72.167969 83.382812 71.726562 84.136719 70.558594 C 86.625 66.699219 89.339844 63.050781 93.261719 60.496094 C 94.410156 59.75 94.621094 58.808594 94.042969 57.636719 C 92.375 54.261719 92.917969 50.871094 94.128906 47.550781 C 95.371094 44.148438 97.003906 40.886719 98.140625 37.449219 C 99.015625 34.820312 100.070312 32.363281 101.8125 30.226562 C 102.359375 29.558594 102.882812 28.714844 104.148438 28.917969 C 103.648438 29.972656 103.085938 30.921875 102.734375 31.9375 C 102.261719 33.300781 101.714844 34.707031 101.621094 36.121094 C 101.375 39.964844 101.125 43.988281 102.699219 47.511719 C 104.195312 50.84375 104.457031 54.386719 105.558594 57.746094 C 106.796875 61.523438 108.824219 64.785156 111.847656 67.421875 C 122.105469 76.378906 132.355469 85.34375 142.003906 94.964844 C 143 95.957031 144.148438 96.8125 145.054688 97.882812 C 146.523438 99.625 146.671875 101.300781 145.378906 103.167969 C 143.980469 105.207031 142.53125 107.277344 140.773438 109 C 132.40625 117.183594 123.890625 125.226562 115.488281 133.375 C 107.171875 141.441406 98.921875 149.574219 90.648438 157.675781 C 90.261719 158.054688 89.929688 158.539062 89.472656 158.78125 C 88.785156 159.144531 87.785156 159.75 87.320312 159.503906 C 86.722656 159.179688 86.230469 158.132812 86.1875 157.375 C 85.902344 152.472656 83.265625 149.089844 79.257812 146.734375 C 77.117188 145.476562 74.679688 144.722656 72.371094 143.738281 C 72.183594 143.65625 71.945312 143.621094 71.808594 143.488281 C 71.492188 143.171875 71.21875 142.796875 70.929688 142.453125 C 71.394531 142.320312 71.921875 141.976562 72.324219 142.085938 C 74.09375 142.578125 75.796875 143.316406 77.582031 143.734375 C 78.46875 143.9375 79.523438 143.789062 80.386719 143.488281 C 80.769531 143.351562 81.210938 142.304688 81.050781 141.90625 C 80.578125 140.75 79.953125 139.597656 79.152344 138.648438 C 75.550781 134.386719 71.164062 131.230469 65.714844 129.796875 C 63.203125 129.136719 60.628906 128.628906 58.050781 128.3125 C 56.046875 128.066406 55.601562 128.777344 56.03125 130.726562 C 56.109375 131.078125 56.019531 131.46875 56.011719 131.84375 C 55.636719 131.75 55.210938 131.746094 54.90625 131.546875 C 51.847656 129.578125 48.8125 127.574219 45.765625 125.578125 C 45.421875 125.351562 45.050781 125.15625 44.71875 124.910156 C 43.550781 124.015625 43.417969 123.039062 44.394531 121.941406 C 45.605469 120.578125 46.820312 119.199219 48.148438 117.949219 C 50.019531 116.183594 50.222656 114.152344 48.867188 111.558594 C 47.285156 108.535156 44.945312 106.292969 42.046875 104.546875 C 42.089844 104.429688 42.132812 104.308594 42.171875 104.1875 Z M 42.167969 104.230469 "/>
<path style=" stroke:none;fill-rule:nonzero;fill:rgb(100%,100%,100%);fill-opacity:1;" d="M 58.148438 34.234375 C 58.753906 34.53125 59.40625 34.753906 59.957031 35.128906 C 60.804688 35.710938 61.539062 36.484375 62.421875 37.003906 C 62.894531 37.285156 63.675781 37.414062 64.140625 37.210938 C 64.414062 37.089844 64.457031 36.167969 64.390625 35.628906 C 64.238281 34.269531 63.296875 33.40625 62.332031 32.539062 C 61.480469 31.78125 60.554688 31.007812 60.003906 30.042969 C 58.796875 27.921875 57.007812 26.527344 54.894531 25.480469 C 52.445312 24.273438 49.964844 23.132812 47.511719 21.945312 C 47.023438 21.710938 46.574219 21.394531 46.109375 21.113281 C 46.140625 20.96875 46.167969 20.8125 46.195312 20.664062 C 47.128906 20.582031 48.101562 20.300781 49 20.453125 C 52.578125 21.050781 56.171875 21.648438 59.6875 22.542969 C 61.066406 22.894531 62.242188 24.03125 63.527344 24.785156 C 65.023438 25.65625 66.628906 26.375 68.027344 27.378906 C 69.820312 28.667969 71.550781 30.078125 73.097656 31.648438 C 73.671875 32.230469 73.890625 33.398438 73.878906 34.292969 C 73.835938 36.871094 73.496094 39.453125 73.46875 42.039062 C 73.457031 43.121094 73.785156 44.28125 74.230469 45.289062 C 74.996094 47.058594 76.085938 47.285156 77.667969 46.179688 C 78.171875 45.828125 78.609375 45.351562 79.128906 45.027344 C 79.550781 44.769531 80.058594 44.648438 80.523438 44.472656 C 80.628906 44.578125 80.734375 44.691406 80.839844 44.796875 C 80.5625 45.28125 80.339844 45.808594 80 46.246094 C 77.433594 49.5 74.734375 52.648438 72.300781 56.003906 C 70.109375 59.035156 68.457031 62.386719 67.753906 66.113281 C 67.4375 67.789062 67.773438 69.417969 68.757812 70.785156 C 69.582031 71.910156 70.550781 72.984375 71.640625 73.835938 C 82.574219 82.351562 93.550781 90.808594 104.5 99.296875 C 106.433594 100.800781 106.277344 102.285156 104.078125 103.375 C 99.667969 105.566406 95.222656 107.691406 90.828125 109.90625 C 89.542969 110.550781 88.328125 111.367188 87.132812 112.191406 C 85.90625 113.035156 84.578125 113.132812 83.339844 112.367188 C 76.050781 107.859375 68.78125 103.324219 61.460938 98.867188 C 53.429688 93.972656 45.359375 89.148438 37.300781 84.296875 C 36.449219 83.785156 35.527344 83.375 34.734375 82.792969 C 33.59375 81.949219 33.433594 80.796875 34.285156 79.820312 C 42.609375 70.226562 50.816406 60.511719 60.222656 51.941406 C 62.570312 49.796875 62.632812 47.339844 62.332031 44.683594 C 61.917969 41.054688 60.1875 37.933594 58.167969 34.964844 C 58.085938 34.839844 58.027344 34.691406 57.957031 34.550781 C 58.023438 34.445312 58.085938 34.332031 58.148438 34.226562 Z M 58.148438 34.234375 "/>
</g>
</svg>
