<svg width="23" height="23" viewBox="0 0 23 23" fill="none" xmlns="http://www.w3.org/2000/svg">
<path fill-rule="evenodd" clip-rule="evenodd" d="M0 10.837V0.56543H8.18644L10.2527 2.49184V5.08761L9.66346 5.78684L10.2527 6.42322V8.96715L8.18016 10.892L0 10.8386V10.837ZM7.2861 8.7833L8.04346 8.08407V7.23558L7.61921 6.88361H2.20767V8.75344L7.28452 8.78487L7.2861 8.7833ZM7.57992 4.78279L8.04346 4.35068V3.3749L7.28138 2.66625H2.20924V4.78279H7.57992ZM19.9366 12.2401L21.9981 14.1681V16.9053L21.3115 17.6124L21.9981 18.2378V22.4489H19.7889V19.0517L19.3646 18.6982H13.9562V22.4504H11.747V12.2401H19.9366ZM19.0284 14.3394H13.9562V16.6021H19.3269L19.7889 16.17V15.0497L19.0284 14.3394ZM21.6289 10.8904V8.78959H14.9273L13.9531 8.02908V0.568571H11.7455V9.02214L14.137 10.8904H21.6289ZM7.02054 20.4627L7.95389 19.7132V12.2432H10.1631V20.6874L7.82819 22.5636H2.36323L0 20.6906V12.2432H2.20924V19.707L3.16301 20.4627H7.02054Z" fill="white"/>
<path fill-rule="evenodd" clip-rule="evenodd" d="M0 10.837V0.56543H8.18644L10.2527 2.49184V5.08761L9.66346 5.78684L10.2527 6.42322V8.96715L8.18016 10.892L0 10.8386V10.837ZM7.2861 8.7833L8.04346 8.08407V7.23558L7.61921 6.88361H2.20767V8.75344L7.28452 8.78487L7.2861 8.7833ZM7.57992 4.78279L8.04346 4.35068V3.3749L7.28138 2.66625H2.20924V4.78279H7.57992ZM19.9366 12.2401L21.9981 14.1681V16.9053L21.3115 17.6124L21.9981 18.2378V22.4489H19.7889V19.0517L19.3646 18.6982H13.9562V22.4504H11.747V12.2401H19.9366ZM19.0284 14.3394H13.9562V16.6021H19.3269L19.7889 16.17V15.0497L19.0284 14.3394ZM21.6289 10.8904V8.78959H14.9273L13.9531 8.02908V0.568571H11.7455V9.02214L14.137 10.8904H21.6289ZM7.02054 20.4627L7.95389 19.7132V12.2432H10.1631V20.6874L7.82819 22.5636H2.36323L0 20.6906V12.2432H2.20924V19.707L3.16301 20.4627H7.02054Z" fill="url(#paint0_linear_214_2)"/>
<defs>
<linearGradient id="paint0_linear_214_2" x1="10.9991" y1="0.56543" x2="10.9991" y2="22.5636" gradientUnits="userSpaceOnUse">
<stop stop-color="#D5BF91"/>
<stop offset="1" stop-color="#D9BE81"/>
</linearGradient>
</defs>
</svg>
