<svg width="22" height="22" viewBox="0 0 22 22" fill="none" xmlns="http://www.w3.org/2000/svg">
<path fill-rule="evenodd" clip-rule="evenodd" d="M0 10.366V0.541016H7.83051L9.80693 2.38367V4.86658L9.24331 5.53541L9.80693 6.14412V8.57744L7.8245 10.4186L0 10.3675V10.366ZM6.96931 8.40159L7.69374 7.73276V6.92116L7.28794 6.58449H2.11168V8.37303L6.9678 8.40309L6.96931 8.40159ZM7.25036 4.57501L7.69374 4.16169V3.22834L6.9648 2.5505H2.11319V4.57501H7.25036ZM19.0698 11.7081L21.0417 13.5523V16.1705L20.3849 16.8468L21.0417 17.445V21.473H18.9285V18.2235L18.5227 17.8854H13.3494V21.4745H11.2363V11.7081H19.0698ZM18.2011 13.7161H13.3494V15.8804H18.4866L18.9285 15.4671V14.3955L18.2011 13.7161ZM20.6885 10.4171V8.4076H14.2783L13.3464 7.68016V0.544021H11.2348V8.63004L13.5223 10.4171H20.6885ZM6.7153 19.5732L7.60807 18.8563V11.7111H9.72126V19.7881L7.48783 21.5827H2.26048L0 19.7912V11.7111H2.11319V18.8503L3.02549 19.5732H6.7153Z" fill="white"/>
</svg>
