<svg xmlns="http://www.w3.org/2000/svg" viewBox="0 0 300 300" fill="none" stroke="#bfa187" stroke-miterlimit="10" stroke-width="3" xmlns:v="https://vecta.io/nano"><path d="M150 44.872V1.622m-16.446 44.545l-6.765-42.719m-9.275 46.57L104.149 8.884m-1.876 47.446L82.638 17.794m5.569 47.156L62.785 29.959m12.878 45.704L45.081 45.081M64.95 88.207L29.959 62.785m26.371 39.488L17.794 82.638m32.224 34.876L8.884 104.149m37.283 29.405l-42.719-6.765M44.872 150H1.622m44.545 16.446l-42.719 6.765m46.57 9.275L8.884 195.851m47.446 1.876l-38.536 19.635m47.156-5.569l-34.991 25.422m45.704-12.878l-30.582 30.582m43.126-19.869l-25.422 34.991m39.488-26.371l-19.635 38.536m34.876-32.224l-13.365 41.134m29.405-37.283l-6.765 42.719M150 255.128v43.25m16.446-44.545l6.765 42.719m9.275-46.57l13.365 41.134m1.876-47.446l19.635 38.536m-5.569-47.156l25.422 34.991m-12.878-45.704l30.582 30.582m-19.869-43.126l34.991 25.422m-26.371-39.488l38.536 19.635m-32.224-34.876l41.134 13.365m-37.283-29.405l42.719 6.765M255.128 150h43.25m-44.545-16.446l42.719-6.765m-46.57-9.275l41.134-13.365m-47.446-1.876l38.536-19.635m-47.156 5.569l34.991-25.422m-45.704 12.878l30.582-30.582M211.793 64.95l25.422-34.991"/><path d="M197.727 56.33l19.635-38.536m-34.876 32.224l13.365-41.134m-29.405 37.283l6.765-42.719"/></svg>