<?xml version="1.0" encoding="UTF-8"?>
<svg id="Layer_1" data-name="Layer 1" xmlns="http://www.w3.org/2000/svg" viewBox="0 0 32 32">
  <defs>
    <style>
      .cls-1 {
        fill: #fff;
      }
    </style>
  </defs>
  <path d="m7.56,1h16.87c3.62,0,6.56,2.94,6.56,6.56v16.88c0,3.62-2.94,6.56-6.56,6.56H7.56c-3.62,0-6.56-2.94-6.56-6.56V7.56C1,3.94,3.94,1,7.56,1Z"/>
  <g>
    <path class="cls-1" d="m7.5,18.53c.18.06.37.12.55.19,1.34.55,2.69,1.08,3.84,2,.39.31.78.6,1.18.9.85.64,1.8,1.08,2.79,1.46.16.06.31.13.45.23.48.32.95.16,1.26-.16,1.23-1.27,2.3-2.68,3.38-4.07.55-.71.35-1.49-.36-2.04-1.1-.87-2.2-1.74-3.32-2.57-.66-.49-1.36-.9-2.05-1.35-.06-.04-.13-.08-.18-.12-.19-.16-.2-.24-.07-.44.44-.69.93-1.33,1.62-1.79.2-.13.24-.3.14-.51-.3-.6-.2-1.2.02-1.79.22-.6.51-1.19.71-1.8.15-.47.34-.9.65-1.28.1-.12.19-.27.42-.23-.09.19-.19.36-.25.54-.08.24-.18.49-.2.74-.04.68-.09,1.4.19,2.02.27.59.31,1.22.51,1.82.22.67.58,1.25,1.12,1.72,1.82,1.59,3.65,3.19,5.36,4.9.18.18.38.33.54.52.26.31.29.61.06.94-.25.36-.51.73-.82,1.04-1.49,1.46-3,2.88-4.5,4.33-1.48,1.43-2.94,2.88-4.42,4.32-.07.07-.13.15-.21.2-.12.06-.3.17-.38.13-.11-.06-.19-.24-.2-.38-.05-.87-.52-1.47-1.23-1.89-.38-.22-.81-.36-1.22-.53-.03-.01-.08-.02-.1-.04-.06-.06-.1-.12-.16-.18.08-.02.18-.09.25-.07.31.09.62.22.94.29.16.04.34.01.5-.04.07-.02.15-.21.12-.28-.08-.21-.19-.41-.34-.58-.64-.76-1.42-1.32-2.39-1.57-.45-.12-.9-.21-1.36-.26-.36-.04-.43.08-.36.43.01.06,0,.13,0,.2-.07-.02-.14-.02-.2-.05-.54-.35-1.08-.71-1.62-1.06-.06-.04-.13-.07-.19-.12-.21-.16-.23-.33-.06-.53.22-.24.43-.49.67-.71.33-.31.37-.68.13-1.14-.28-.54-.7-.94-1.21-1.25,0-.02.02-.04.02-.06h0Z"/>
    <path class="cls-1" d="m10.34,6.09c.11.05.22.09.32.16.15.1.28.24.44.33.08.05.22.07.3.04.05-.02.06-.19.05-.28-.03-.24-.19-.39-.37-.55-.15-.13-.32-.27-.41-.44-.22-.38-.53-.63-.91-.81-.43-.22-.88-.42-1.31-.63-.09-.04-.17-.1-.25-.15,0-.03.01-.05.02-.08.17-.01.34-.06.5-.04.64.11,1.28.21,1.9.37.25.06.45.27.68.4.27.16.55.28.8.46.32.23.63.48.9.76.1.1.14.31.14.47,0,.46-.07.92-.07,1.38,0,.19.06.4.13.58.14.31.33.35.61.16.09-.06.17-.15.26-.2.07-.05.16-.07.25-.1.02.02.04.04.06.06-.05.09-.09.18-.15.26-.46.58-.94,1.14-1.37,1.74-.39.54-.68,1.13-.81,1.8-.06.3,0,.59.18.83.15.2.32.39.51.54,1.94,1.51,3.89,3.02,5.84,4.53.34.27.32.53-.07.73-.78.39-1.57.77-2.36,1.16-.23.12-.45.26-.66.41-.22.15-.45.17-.67.03-1.3-.8-2.59-1.61-3.89-2.4-1.43-.87-2.86-1.73-4.29-2.59-.15-.09-.32-.16-.46-.27-.2-.15-.23-.35-.08-.53,1.48-1.71,2.94-3.43,4.61-4.96.42-.38.43-.82.37-1.29-.07-.64-.38-1.2-.74-1.73-.02-.02-.03-.05-.04-.07.01-.02.02-.04.03-.06h0Z"/>
  </g>
</svg>