<?xml version="1.0" encoding="UTF-8"?>
<svg xmlns="http://www.w3.org/2000/svg" xmlns:xlink="http://www.w3.org/1999/xlink" width="16px" height="16px" viewBox="0 0 16 16" version="1.1">
<g id="surface1">
<path style=" stroke:none;fill-rule:nonzero;fill:rgb(0%,0%,0%);fill-opacity:1;" d="M 3.78125 0.5 L 12.214844 0.5 C 14.023438 0.5 15.496094 1.96875 15.496094 3.78125 L 15.496094 12.21875 C 15.496094 14.03125 14.023438 15.5 12.214844 15.5 L 3.78125 15.5 C 1.96875 15.5 0.5 14.03125 0.5 12.21875 L 0.5 3.78125 C 0.5 1.96875 1.96875 0.5 3.78125 0.5 Z M 3.78125 0.5 "/>
<path style=" stroke:none;fill-rule:nonzero;fill:rgb(100%,100%,100%);fill-opacity:1;" d="M 3.75 9.265625 C 3.839844 9.296875 3.933594 9.324219 4.023438 9.359375 C 4.695312 9.636719 5.371094 9.898438 5.945312 10.359375 C 6.140625 10.515625 6.335938 10.660156 6.535156 10.808594 C 6.960938 11.128906 7.433594 11.351562 7.929688 11.539062 C 8.011719 11.570312 8.085938 11.605469 8.15625 11.65625 C 8.394531 11.816406 8.628906 11.734375 8.785156 11.574219 C 9.398438 10.941406 9.933594 10.234375 10.476562 9.539062 C 10.75 9.183594 10.648438 8.796875 10.296875 8.519531 C 9.746094 8.085938 9.195312 7.648438 8.636719 7.234375 C 8.304688 6.988281 7.953125 6.785156 7.609375 6.558594 C 7.578125 6.539062 7.546875 6.519531 7.519531 6.5 C 7.425781 6.421875 7.421875 6.378906 7.484375 6.28125 C 7.703125 5.933594 7.949219 5.613281 8.296875 5.386719 C 8.394531 5.320312 8.414062 5.234375 8.363281 5.128906 C 8.214844 4.828125 8.265625 4.53125 8.375 4.234375 C 8.484375 3.933594 8.628906 3.640625 8.730469 3.335938 C 8.804688 3.101562 8.898438 2.886719 9.054688 2.695312 C 9.105469 2.636719 9.148438 2.558594 9.265625 2.578125 C 9.21875 2.675781 9.171875 2.761719 9.140625 2.851562 C 9.101562 2.96875 9.050781 3.09375 9.039062 3.21875 C 9.019531 3.558594 8.996094 3.921875 9.136719 4.230469 C 9.269531 4.523438 9.289062 4.839844 9.390625 5.140625 C 9.5 5.476562 9.679688 5.765625 9.949219 6 C 10.859375 6.796875 11.773438 7.59375 12.628906 8.449219 C 12.71875 8.539062 12.820312 8.613281 12.898438 8.710938 C 13.03125 8.863281 13.046875 9.015625 12.929688 9.179688 C 12.804688 9.359375 12.675781 9.546875 12.519531 9.699219 C 11.773438 10.429688 11.019531 11.140625 10.269531 11.863281 C 9.53125 12.578125 8.800781 13.304688 8.058594 14.023438 C 8.023438 14.058594 7.996094 14.101562 7.953125 14.125 C 7.894531 14.15625 7.804688 14.210938 7.765625 14.191406 C 7.710938 14.160156 7.671875 14.070312 7.664062 14 C 7.640625 13.566406 7.40625 13.265625 7.050781 13.054688 C 6.859375 12.945312 6.644531 12.875 6.441406 12.789062 C 6.425781 12.785156 6.398438 12.78125 6.390625 12.769531 C 6.359375 12.738281 6.339844 12.710938 6.308594 12.679688 C 6.351562 12.671875 6.398438 12.636719 6.433594 12.644531 C 6.589844 12.691406 6.746094 12.753906 6.90625 12.789062 C 6.984375 12.808594 7.074219 12.796875 7.15625 12.769531 C 7.191406 12.761719 7.230469 12.664062 7.214844 12.628906 C 7.175781 12.523438 7.121094 12.425781 7.046875 12.339844 C 6.726562 11.960938 6.335938 11.679688 5.851562 11.554688 C 5.625 11.496094 5.398438 11.449219 5.171875 11.425781 C 4.988281 11.40625 4.953125 11.464844 4.988281 11.640625 C 4.996094 11.671875 4.988281 11.703125 4.988281 11.738281 C 4.953125 11.730469 4.921875 11.730469 4.890625 11.714844 C 4.621094 11.539062 4.351562 11.359375 4.078125 11.183594 C 4.050781 11.164062 4.015625 11.148438 3.984375 11.125 C 3.878906 11.046875 3.871094 10.960938 3.953125 10.859375 C 4.066406 10.738281 4.171875 10.613281 4.289062 10.503906 C 4.453125 10.351562 4.476562 10.164062 4.355469 9.933594 C 4.214844 9.664062 4.003906 9.464844 3.75 9.308594 C 3.75 9.300781 3.761719 9.289062 3.761719 9.28125 Z M 3.75 9.265625 "/>
<path style=" stroke:none;fill-rule:nonzero;fill:rgb(100%,100%,100%);fill-opacity:1;" d="M 5.171875 3.046875 C 5.226562 3.070312 5.28125 3.089844 5.328125 3.125 C 5.40625 3.175781 5.46875 3.246094 5.550781 3.289062 C 5.589844 3.316406 5.660156 3.324219 5.699219 3.308594 C 5.726562 3.300781 5.730469 3.214844 5.726562 3.171875 C 5.710938 3.050781 5.628906 2.976562 5.539062 2.894531 C 5.464844 2.828125 5.378906 2.761719 5.335938 2.675781 C 5.226562 2.484375 5.070312 2.359375 4.878906 2.269531 C 4.664062 2.160156 4.441406 2.058594 4.226562 1.953125 C 4.179688 1.933594 4.140625 1.90625 4.101562 1.878906 C 4.101562 1.863281 4.105469 1.855469 4.109375 1.839844 C 4.195312 1.835938 4.28125 1.808594 4.359375 1.820312 C 4.679688 1.875 5 1.925781 5.308594 2.003906 C 5.433594 2.035156 5.535156 2.140625 5.648438 2.203125 C 5.785156 2.285156 5.925781 2.34375 6.050781 2.433594 C 6.210938 2.550781 6.363281 2.675781 6.5 2.816406 C 6.550781 2.863281 6.570312 2.96875 6.570312 3.050781 C 6.570312 3.28125 6.535156 3.511719 6.535156 3.738281 C 6.535156 3.835938 6.566406 3.941406 6.601562 4.03125 C 6.671875 4.183594 6.765625 4.203125 6.90625 4.109375 C 6.949219 4.078125 6.988281 4.035156 7.035156 4.011719 C 7.070312 3.984375 7.113281 3.976562 7.160156 3.960938 C 7.171875 3.96875 7.179688 3.980469 7.191406 3.988281 C 7.164062 4.035156 7.144531 4.078125 7.113281 4.121094 C 6.886719 4.410156 6.644531 4.691406 6.429688 4.988281 C 6.234375 5.261719 6.089844 5.554688 6.023438 5.890625 C 5.996094 6.039062 6.023438 6.183594 6.113281 6.304688 C 6.191406 6.40625 6.273438 6.5 6.371094 6.574219 C 7.339844 7.328125 8.316406 8.085938 9.289062 8.839844 C 9.460938 8.976562 9.449219 9.105469 9.253906 9.203125 C 8.863281 9.398438 8.46875 9.589844 8.074219 9.785156 C 7.960938 9.84375 7.851562 9.914062 7.746094 9.988281 C 7.636719 10.066406 7.519531 10.074219 7.410156 10.003906 C 6.761719 9.605469 6.113281 9.199219 5.464844 8.804688 C 4.75 8.371094 4.035156 7.941406 3.320312 7.511719 C 3.246094 7.464844 3.160156 7.429688 3.089844 7.375 C 2.988281 7.300781 2.976562 7.199219 3.050781 7.109375 C 3.789062 6.253906 4.519531 5.394531 5.355469 4.628906 C 5.566406 4.441406 5.570312 4.21875 5.539062 3.984375 C 5.503906 3.664062 5.351562 3.386719 5.171875 3.121094 C 5.160156 3.109375 5.15625 3.09375 5.148438 3.085938 C 5.15625 3.074219 5.160156 3.066406 5.164062 3.054688 Z M 5.171875 3.046875 "/>
</g>
</svg>
