<svg xmlns="http://www.w3.org/2000/svg" viewBox="0 0 718 500.3" fill="#fff" xmlns:v="https://vecta.io/nano"><path d="M83 487.1c0 .2-1.1 12.7-14.9 12.7H24.6c-.3 0-24.6-.5-24.6-33.3v-32c0-8 5.8-23.2 27.7-23.2l52.9.3h.5V432H35.8c-.4 0-11.2.2-11.2 11.7v25.7c0 .3 1.2 8.7 11.5 8.7h18.5c.1 0 2.7-.5 2.7-5.6 0-6.6-.2-11.6-.2-12.3-.2-.5-1.5-3.8-5.2-4.8l-.2-.1-.1-.2c-.7-1.6-.5-2.4-.4-2.5l.1-.3h29.3c.2 0 2.5.4 2.3 4.4-.1 3.6.1 30.1.1 30.4m634.9-54.9h-.6c-5.1.2-11 .2-17.3.2-10.2 0-18.8-.2-20.9-.2v67.4h-23.4v-67.7h-55.2v12.7c0 .1.1 3.2 5.8 3.2h20.9v17h-20.7c-.2 0-5.7.1-5.7 4.3l.1 30v.5l-23.5-.4v-76.6c0-3.3 1.3-11 12.9-11h108.9c7.6 0 15.8 8.7 18.8 19.9l-.1.7h0z"/><path d="M394.1 478v21.7h-62.3c-5.2 0-9-1.3-11.3-4-2.8-3.2-2.2-7.1-2.2-7.3V425c0-11.7 10.7-13.4 10.9-13.4H394l-.5 19.6h-47.3c-1.4 0-2.5.4-3.2 1.2-1.2 1.3-1.1 3.1-1.1 3.1v6.8c0 4.1 4.2 4.2 4.4 4.2l42.5-.1V465h-42.4c-5.1.3-5.2 4.3-5.2 4.5v4c0 4.2 4.5 4.5 4.7 4.5h48.2 0zm83.1 20.6v1h-59.7s-.4.1-.9.1c-2 0-8.7-.7-8.7-9.7l-.3-77.8v-.5H432v62c0 .2.2 4.7 4.6 4.7h29l.1.4c0 .2 4.3 19.8 11.5 19.8m-172.9-73l-.2 73.8v.5h-24.4l.1-55-28.9 53.2c-.1.1-1.4 2.2-3.1 2.2-1 0-1.6-.8-2.7-2.4l-28.5-50.8v52.3l-25.2.2.4-75.5c0-.1.2-12.6 11-12.6h11c.8 0 3.7.3 6.2 4.7 1.6 2.6 25.4 39 25.6 39.4.5 1 1.4 2 1.8 2s1.6-1.1 2.5-2l24.5-39.3c.1-.2 2.6-4.6 6.4-4.7h13.4c.1 0 10.1.5 10.1 14m234-13.9h-37.5c-6.4 0-24.4 4.5-24.4 24.7V473c0 .3 2.5 27 21.7 27l42.6-.6c.2 0 23-3.9 23-27.5v-35.1c-.1-.2-2.6-25.1-25.4-25.1m-11.2 67.2c-5.8 0-18.1-.2-18.2-.2h-.3c-.8 0-2.8-.1-4.6-1.5-2.4-1.8-3.6-4.9-3.6-9.2 0-13.4.6-27.7.6-27.9 0 0-.2-3.5 2.1-6 1.6-1.8 4.1-2.6 7.4-2.6l19.7.1c.4 0 9.4.4 9.4 10.4 0 10.6-.7 26-.7 26.2v.2s.6 4-1.9 7.1c-2 2.3-5.3 3.4-9.9 3.4M183.5 499l-33.8-83.4c-2.1-3.9-6.4-4.2-7.6-4.2h-13.9c-7.5 0-8.4 4.6-8.5 5.3L88 500.1l26.3-.3 6-18.5 30.1.1c3.1 9.4 5.5 17.8 5.5 17.9l.1.4h27.7l-.2-.7h0zm-57.3-36.7l8.9-25.6 8.4 25.6h-17.3 0zm322.6-93.7h-1.6s.6.1 1.6 0m162.9-210.9s1.1-35.3-2.9-57.9c-4.7-26.7-18.4-50-23.3-56.2-4.4-5.6-14.5-22.3-46.6-32.9-25.2-8.3-55.6-8.3-80.8-9.2S325.3 0 325.3 0L217.5 2.1c-50 2.4-62.5 3.5-85.1 13.1s-38.1 32.2-43 50.7c-5 18.4-3.3 49.6-3.3 49.6l1 130.8s-.8 20.4 1.8 41.5c3.6 27.3 8.3 39.4 13.1 46.7 3.8 5.8 12.1 17.5 27.4 24.8 11.1 5.3 44.3 6.1 60.5 6.2l121.2 4 93.7-1 53.5-.2c-4.2.2-7.6.3-9.4.3 5.2 0 22.2-.2 33-1.2 12.8-1.2 30.8-7.8 40.3-15.3s18.4-17.6 28-35.7c6.7-12.8 8.9-48.5 8.9-48.5l.3-52.4s-.6-27.8-3.8-41.8c-3.2-13.9-8.7-25.4-21.7-39.5-11.5-12.6-28.6-18.2-43.5-20.8s-59.4-2.1-59.4-2.1l-110.4-.7-75.7 1.5s-18.3-.2-32.2 1.4c-13.9 1.5-19.2 6.5-22.9 9.3s-10.7 8.7-13.5 18.4c-3 10.4-2.3 35.2-2.3 35.2l1.4 48.4c.2 6.1 3.7 5.4 3.7 5.4l25.5 2.8c1.1-.1.4.9.8-.1a.76.76 0 0 1 .2-.4h.2s5.5-14.6 22.5-15.6 204.1-3.9 219.4-4.2 18.8 4.4 20.5 8c1.7 3.7 2.3 16 2.3 16l-.3 22.5s-2.3 12.8-8.7 17.8c-5.3 4.1-5.3 5.6-16.9 6s-226.8-1.9-226.8-1.9-24.6.8-34.9-12.3c-10.3-13.2-20-21-20.4-56.1l.2-81.4s-1.1-26.3 17.1-43.5c15.1-14.4 48.3-12.5 48.3-12.5l106.5-.7c27.3-.7 163.6 3.3 170.6 3.6 6.9.4 22 1.1 40.4 20.4 6.4 6.9 16.9 24.5 19.3 40.6s5.6 73.6 5.6 73.6v.7c.1 6.7 1.1 60.7-4.1 81.1-5.6 21.8-11.9 39.4-27.7 55l-7 7.2s0 .1-.1.2h0c-.3.6-.9 2.3 0 3.1 0 0 .1.1.2.1 1.9 4.5 10.6 7.6 11.3 7.8.9.3 9.6-1.1 15.8-5 25.2-16.5 31.4-25 40.3-47 12.9-27.2 13.3-61.3 13.3-66.2-.3-5-.8-92.1-.8-92.1"/></svg>