<svg xmlns="http://www.w3.org/2000/svg" viewBox="0 0 1329.8 420.2" fill="#fdfdfd" xmlns:v="https://vecta.io/nano"><path d="M814.7 150.2v5.7l-.7 55.9c0 4.1 2.6 7.9 6.5 9.3.6.2 1.2.5 1.8.7 9.7 3.4 9.7 3.4 9.7 13.4v16.5c.1 3.7-1.3 5.7-5.2 5.4l-17.5-1.8-13.2-1.1-31.5-2.1c-7.6-.7-15.2-2-22.8-2.7-3.6-.4-4.1-2.5-4.1-5.4 0-7.3.2-14.7-.1-22-.2-4 1.9-5.4 5.3-6.2 3.7-.8 7.2-2.2 8.9-5.9.6-1.4 1.1-3 1.2-4.6v-30l-.1-127.5c0-6.9-.4-7.2-7.2-8.6-1-.2-1.9-1.1-3-1.4s-2.3-.2-4-.3c-.1 2.2-.3 4.1-.3 6V85c0 6.7-.6 7.2-7 7.2h-28.5c-4.9 0-5.8-.9-5.8-5.8 0-6 .6-12.1-.2-18-.8-5.6-2.5-11.2-4.8-16.4-1.9-4.4-9.6-6.2-15.3-4.6-4.9 1.3-7.6 5.1-7.7 11-.1 5.8.4 11.7-.1 17.5-.7 7.5 2.6 12.6 8.4 16.3 8.2 5.3 17.3 9.4 24.9 15.4 8 6.3 17.9 9.9 24.2 19 7.3 10.4 11.9 21.1 11.6 33.9-.3 12.7.2 25.3-.1 38-.3 13.2-4.5 24.4-14.3 34.3-8 8.1-16.8 13.5-27.5 15.8-8.1 1.7-16.5 2.9-24.9.8-3.3-.8-6.8-.7-10.2-1.2-1.5-.2-3-1.4-4.5-1.6-2.1-.3-5.3-.8-6.1.2-2.1 2.9-4.8 2.3-7.4 2.4-10.4.4-20.9.2-31.3 1.1-12.3 1.1-24.5 3.3-36.8 4.8-6.8.9-13.7 1.4-20.5 2.1-5.3.6-10.7 1.4-16 1.8-2.8.2-5.6 0-8.8 0-.2-2.1-.4-3.7-.4-5.3 0-7.8.2-15.7-.1-23.5-.1-2.8.9-4.1 3.2-4.7 7.3-1.7 7.7-3.5 6.2-12.6l-4.3-25.4c-.4-2.5-1.1-3.5-3.6-3.5h-22.6l-3.9 25c-.8 5.1-1.6 10.2-2.7 15.3-.9 4.5-.2 5.6 4.5 5.7h4c2.8.1 4.2 1.5 4.1 4.4v25c0 2.5-.9 3.4-3.3 3.9-7.3 1.4-14.5 3.1-21.8 4.7l-25 5.5c-4.3.9-8.5 2-12.9 2.5-4.1.4-6.2-1.6-6.9-5.8-.3-1.5-.7-2.9-1.3-5.1-4.6 4.6-8.7 8.3-12.3 12.4-6.4 7.5-15.3 10.7-23.8 14.5-7.8 3.5-16 4.3-24.4 4.1-8.6-.3-17.3.3-25.7-1.2-14.7-2.7-26.9-10.1-34.7-23.5-2.4-4.1-4.8-8.4-6.5-12.8-1.3-3.5-2.2-7.5-2.2-11.3l-.1-196c0-6.1.8-12.3 1.2-18.4.8-.2 2-.1 2.3-.6C323.4 19.6 334.2 11.4 347 6c6.1-2.6 12.9-3.9 19.5-4.8 6.6-.8 13.3-.4 19.9-.4 1.9 0 4 .2 5.8.9 6.2 2.6 12.3 3.2 19.2 2.7 11.8-.9 23.6-.4 35.5-.2 3.9.1 5.9 2.5 5.9 6.5l-.1 89.5c0 4.3-1.8 5.7-6.2 5.7h-32c-1.9 0-3.8.4-6.3.7-.3-2.6-1-5.5-1-8.3v-29c.1-6.7-1.9-12.7-4.8-18.6-1.9-3.8-5.4-5-8.9-5.7a27.45 27.45 0 0 0-9.9 0c-1.9.4-4.3 2.1-5.1 3.8-1.3 2.9-1.9 6.3-1.9 9.5l-.1 118-.8 53.8c-.1 6.3 4.2 14.1 10.2 15.7 9.7 2.7 20.6-3.1 21-14.3.7-19.8.4-39.6.4-59.5 0-.9-.6-1.9-.7-2.8-.7-4.9.4-9.8 7.8-9.4 10.6.5 21.3.1 32 .1 5 0 5.9.9 6 5.7l.8 61.3c0 3.6-.4 7.2-.7 10.8.3.2.7.3 1 .5.9-1.3 2.4-2.4 2.6-3.8l5.1-27.2c1.1-6.2 2.1-12.4 2.7-18.6.9-10.8 3.3-21.3 4.5-32.1 1.2-10.3 4-20.3 5.7-30.5 1.7-10.1 2.6-20.3 4.2-30.5 1.4-8.8 3.3-17.4 4.6-26.2 1-6.6 1.6-13.3 2.3-20 .3-2.5 1-5.2.3-7.5-.8-2.6-3.2-4-6.5-4.1-8-.1-9.7-2-9.7-10V11.2c.1-5.3 1.9-7.3 7.1-7.3h111c2.2 0 4.3 1.1 6.7 1.7v28.8c0 2.8-1.5 4.2-4.3 4.3-1.7 0-3.3.1-5 0-8.2-.3-10.8 1.8-9.2 11l7.4 41.6 6 36 5.9 39c.5 3.7.5 7.5 1.1 11.2 1.5 8.7 3.1 17.3 4.9 25.9 2 9.5 2.2 9.5 6.8 12.9.3-2.2.8-4 .8-5.8l.6-51.4c.1-5.9.5-6.3 6.2-6.3h28c5.5 0 6.3.9 6.3 6.4l.1 30.5c.1 2.7.6 5.6 1.6 8 1.7 4.1 9.2 7.3 13.5 6.2 5.7-1.4 10-6.5 10-11.8 0-7.7-.3-15.3.1-23 .3-5.5-2.3-8.7-6.4-11.4l-33.3-21.1c-5.7-3.7-10.3-8.5-14.9-13.5-8.9-9.7-11.2-21.2-11.5-33.5-.3-14.5.1-29-.1-43.5-.1-11.3 3.7-20.7 11.6-28.9 6.7-7 14.5-12.5 23.6-15 10.2-2.9 20.8-3.7 31.3-1.5 5.9 1.2 11.6 3.5 17.3 5.2.9.3 2.2.8 2.7.4C699.3 4 703.8 5 708 5l165.4-.7 85.3-.1c1.3 0 2.7-.1 4 .1 3.4.6 5.6 1.9 5.4 6.2-.4 6.3-.3 12.7 0 19 .2 3.6-1 6.2-4.1 7.6-6.3 3.1-7.8 8.1-7.8 14.9l.1 186c0 6.1 4.2 10.1 12.7 12.2 1.5.4 2.9 1.4 4.1 2.4 3.4 3 7.3 1.5 10.8 1.1 2.8-.3 3.4-2.8 3.4-5.6l.3-88V50.2c0-8.2 0-8.3-8.1-11.2-7.2-2.6-9-5.2-8.6-12.6.3-4.6.1-9.3.1-14 0-5.5 2.5-8.2 8-8.2h83.5c4.9 0 7.5 4.8 6.3 10.6-.6 3-1.2 6.3-.6 9.3 1.8 10.5 1.1 11.9-9.1 15-6.5 1.9-6.5 1.9-6.4 8.7l.2 212c0 3-1.6 6.8 2.9 8.6 3.4 1.3 9.7.6 12.2-2.7 2.3-3.1 3.7-7.1 5-10.8 2.1-6.4 3.9-12.9 5.6-19.5 1.4-5.1 2.2-10.4 3.7-15.5 1.3-4.6 2.9-9.2 5-13.5.7-1.5 3.1-2.9 4.8-3.1 3.9-.5 8-.3 12-.1 3.4.2 4.7-1 4.7-4.5l-.1-152c0-4.6-2.2-6.8-7-7.6-2.5-.4-5.1-1-7.2-2.3-3.3-2-4.7-5.1-4.3-9.2.4-5.1.1-10.3.1-15.5 0-5.6 2.1-7.8 7.8-7.8l71-.1c5.7 0 7.8 2.6 9.1 10.5l4 22.4 7 34.7 9.9 45.3c1.2 5.5 2 11.1 3.1 16.6.1.7.7 1.4 1.7 3.3 1.3-4.2 2.5-7.4 3.2-10.6l6.7-33.2 6.3-28.3 5.1-26.8 5.3-27.3c.9-4.6 3.1-6.4 8-6.4h85c4.9 0 5.7 1.1 5.8 6v20c0 4.8-1.4 6.8-6.1 7.9-13.3 3.1-11.1 3.5-11.1 14.3V371c0 11.2 2.3 10.6 11.6 12.2 5.9 1 6.5 1.1 6.5 7.3V412c0 5.1-1.3 6.4-6.4 6.4h-32.5-58c-6.6 0-7.1-.6-7.2-7l-.6-23.3c-.1-2.3 3.6-5.2 7.6-5.7 8.3-1.2 9.5-2.5 9.5-10.9l.2-193.5c0-1.7-.3-3.5-.4-5.2l-1.4-.3c-.8 2.2-1.9 4.4-2.4 6.7-1.2 5.4-2.2 10.8-3.3 16.2l-6.6 33.9c-3.1 14.2-6.8 28.2-10 42.4-1.7 7.9-2.8 15.9-4.3 23.9l-5.4 26.6c-.3 1.4-.4 2.8-.7 4.2-.8 3.3-2.6 5.2-6.3 4.9-1.7-.1-3.4-.2-5 .2-5.7 1.2-7 .9-8.6-4.5-2-6.6-3.5-13.3-5.1-20.1l-5.7-27.1-12.4-60.9c-1.1-5.3-2.8-10.5-4-15.9l-5.6-28.2c-.4-2-1.5-3.9-2.7-6.9-.6 2.1-1.3 3.5-1.3 5l-.1 42 .6 69.3c.1 8.5.2 17-.1 25.5-.2 5.6 2.4 9.2 7 11.7 2.6 1.4 5.3 2.5 7.7 4.1.9.6 1.4 2.2 1.4 3.4v28c0 3.5-3.7 5-7.8 3.3-4.3-1.8-8.5-3.9-12.7-5.9l-26.7-12.8c-10.4-4.6-20.9-8.9-31.4-13.1-6.2-2.5-12.7-4.2-18.6-7.1-11.5-5.6-23.7-9.3-35.5-13.9-7.7-3-15.7-5.3-23.6-7.8-7-2.3-14-4.8-21.1-6.7-8.4-2.3-16.9-4.2-25.3-6.2-19.4-4.7-38.6-9.9-58.2-13.8-9.3-1.8-18.5-4.2-27.7-6.5-1.7-.4-3.8-3.4-3.9-5.3-.5-7.3-.3-14.7-.1-22 .1-5.2 4.9-5.4 8.2-6.2 7.4-2 8.4-2.7 8.4-10.2l-.2-175.5c0-6.4-1.2-7.6-7.9-8.4v39c0 5.3-2.5 7.9-7.9 7.9-9.8 0-19.7-.4-29.5.2-6.1.3-7.4-2.2-7.6-8-.2-6.2 0-12.3 0-18.5 0-4.4-3.8-8.4-8.2-8.6-5.1-.2-10.3 0-15.8 0v55.5l4.7-.3c6.2-.1 7.9-1.6 8.3-7.9.5-6.8 1.1-7.3 7.9-7.3h25c5.8 0 7.1 1.2 7.1 6.8v62.5c0 4.7-1.9 6.6-6.5 6.7-9 0-18-.2-27 .1-3.7.1-5-1.6-5.6-4.7-.1-.3 0-.7-.1-1-2.5-11.3-2.5-11.3-14.1-11zm419.7 259.2c3.3.2 5.6.5 7.9.5h65c3.2 0 6.3.1 9.5-.1 3.3-.2 5.7-1.4 5.2-5.5-.3-2.3-.1-4.7 0-7 .2-3.6-.7-5.5-5-6.3-9.4-1.8-13.5-7-13.5-16.2l-.1-327.4c0-7.3 3.8-12.7 10.6-15.2 7.9-2.9 7.9-2.9 7.9-11 0-6.2-2.3-8.5-8.6-8.5h-51c-5.8 0-11.7-.2-17.5.1-1.9.1-4.9 1-5.5 2.3-1.7 3.6-2.5 7.6-3.3 11.6l-4.8 25.8-5.3 25.6-6.8 31.8-7.1 32.1-5 25.9h-6c-.1-1.4 0-2.6-.3-3.7l-7.9-35.4-7.8-37.5-8-37.8-3.1-16.3c-1.2-6-2.8-11.9-3.9-17.9-.7-3.9-2.9-6.4-6.7-6.4-19.2-.1-38.3-.1-57.5.2-2.1 0-5.8 1.8-6 3.2-.6 4.2-.1 8.6.6 12.8.2 1.2 2.2 2.7 3.6 3.2 7.2 2.1 13.2 5.7 13.2 15.4l.1 241.4c0 4.7-1.1 8.6-5 11.2-2.6 1.7-5.6 3.1-8.6 3.9-2.6.7-4.1 1.6-4.1 4.5 0 4-.3 8 .1 12 .2 1.6 1.4 3.7 2.8 4.5 3 1.8 6.5 2.7 9.7 4.2l37.7 17.8c2.6 1.2 6.1 1.1 8.9.3 1.1-.3 1.7-3.8 2-6 .3-2.1 0-4.3.1-6.5.2-2.7-.9-4-3.5-4.9-2.9-1-6.3-2.2-8-4.4-3.4-4.4-5.7-9.4-5.7-15.6V118.7c0-1.6.2-3.2.3-5.1 2.8.4 5.9-1.7 6.8 2.5l3.1 13.7 12.7 58.1 4.2 20.4 3.5 18.1 6.6 30.7 4.1 19.4c1.2 5.2 2.7 10.3 3.8 15.4l5.6 25.5c.3 1.4 2 2.6 3.1 3.8 1.1-1.3 2.2-2.5 3.1-3.9.3-.5.3-1.2.4-1.9l4.9-23.3 11.9-52.4c3.3-15.2 6-30.5 9.1-45.7l7.9-37.6 8.1-39c.8-3.8 3.4-5.6 6.3-3.5 1.3.9 1.7 3.6 1.7 5.5l-.1 251.9c0 3.9-.8 7.9-1.9 11.6-1.3 4.3-4.4 6.9-9.3 7.5-2 .3-5.2 2.3-5.3 3.9-.6 4.8 0 9.9.1 15.1zM320.2 147.8v89.5c0 12.2 1.8 23.7 10.1 33.3 4.3 5 9 9.8 15.2 12.2 5.3 2.1 11.1 3.9 16.7 4.2 11.6.6 23.5 1.2 34.9-.4 10.6-1.5 20-7.9 27.9-15.2 12.6-11.5 19.4-25.8 19.3-43.2l-.2-55c0-3.9-1.6-4.8-4.9-4.8-6.2.1-12.3.2-18.5 0-3.5-.1-4.7 1.7-5.1 4.5-.2 1.5-.2 3-.1 4.5l.4 51.4c-.3 17.8-12.6 27-29 26.1-2.5-.1-5.6-.5-7.4-2-6.6-5.4-12-11.6-12-21.1l.2-169.9c0-3.3.2-6.8 1-10 2.1-7.9 6.8-13.4 15.2-15.5 7.5-1.9 19.6 1.2 23.4 6.6 4.9 7 7.5 15 7.9 23.5.4 8.6.1 17.3.2 26 .1 4.7.9 5.4 5.5 5.4h17c4.1-.1 6-2 6-6.1v-73c0-4.5-1.4-5.7-6.1-5.8-5.8-.1-11.7 0-17.5-.1-2.8 0-4.7.6-5.4 3.8-.6 2.5-2 2.7-4.4 1.4-4.4-2.3-8.9-4.6-13.6-6-4.5-1.3-9.3-1.3-13.9-2.2-18.7-3.4-35.1 1.5-49.3 14-9.3 8.2-13.7 18.7-13.6 31.3l.1 92.6zm323.7 84.4c.3.1 1 .5 1.7.8 4.5 2 8.9 4.2 13.5 6 7.4 2.9 15.2 1.8 22.9 2.1 9.3.4 18-.9 26-6.4 6.5-4.5 12.4-9.4 16.3-16.4 1.5-2.7 3.8-5.2 4.4-8 1.1-4.7 1.3-9.6 1.4-14.4.2-10.2-.1-20.3.1-30.5.1-8.5-.5-17-4.5-24.5-2.8-5.1-4.9-10.9-10.6-14.2-5.9-3.4-11.4-7.3-17.1-11L673.5 100c-7.2-4.9-12.4-10.9-11.7-20.6.5-8.3.1-16.7.1-25 0-3.6.6-6.6 3.4-9.7 6.8-7.6 20.7-9 28.6-2.4 7 5.9 10.8 13 10.1 22.4-.3 4.1-.1 8.3 0 12.5.1 3.4 2.4 5.7 5.8 5.8 4.3.1 8.7 0 13 0 5.9 0 7.1-1.3 7.2-7.3V33.2v-14c0-3.7-1.6-5.4-5.5-5.2-4 .2-8 0-12 0-7.3 0-7.3 0-9.3 6.2 0 .1-.2.2-.5.5-5.9-2.9-11.6-6.4-17.8-8.6-9.7-3.5-20.1-3.5-30.3-3.2-8.9.2-16.1 4.4-23.2 9.7-8.7 6.5-13.5 14.9-13.8 25.1-.4 17.7.8 35.4.7 53.2 0 9.1 3.8 16.6 9.6 22.4 6.9 7 15.2 12.7 23.3 18.3 7.7 5.3 16.2 9.5 24 14.6 5.3 3.5 8.7 8.3 8.5 15.3-.3 9.5.1 19 0 28.5 0 1.6-.3 3.3-.9 4.8-3.6 9-15.3 14.3-25.2 11.6-10.6-2.9-15.8-11.7-16.7-22-.6-7.8-.2-15.7-.1-23.5 0-3.2-1.3-5-4.7-4.9-5 .1-10 0-15 0-2.9 0-4.5 1.1-4.4 4.4 0 6.8-.5 13.5-.5 20.3v48c0 4.6 2.5 7.2 7.3 7.3 3.7.1 7.3-.1 11 .1 2.7.2 5-.5 6.3-2.8 1.4-2.1 2.1-4.5 3.1-7.1zm214.4-74.1c.2-2.3.6-4.2.6-6.1l.1-47.5c0-6.2-.1-6.3-6.5-6.3H846c-10.2.1-7.8-1.1-11.9 8.1-.2.4-.1 1.1-.3 1.4-2.8 3.4-5.8 7-10.5 7.4-4.5.4-9 0-13.5.1-2.9.1-3.8-1.1-3.8-3.8l-.1-66.5c0-2.8 1.1-3.8 3.9-3.8l20.5.1c7.4.2 15 5.7 16.7 13 1.2 5.2.8 10.8 1 16.2.2 4.8 2.1 6.8 6.9 6.8h12c6.5 0 8.1-1.6 8.1-8.2l.1-47.5c.1-6.4-2.2-8.9-8.8-8.8l-113.9.1h-2.5c-3.3.1-5.7.9-5.9 5-.5 10.1.6 13.6 4.9 14.4 1 .2 2.1 0 2.9.4 7.1 3.7 9.8 9.6 9.7 17.7l-.4 119.7.1 38c.1 4.4-1.3 7.8-4.5 10.4-2.2 1.8-4.8 3.5-7.5 4.2-4.5 1.2-5.6 3.9-5.1 8 .4 3.5-1.2 7.6 2.3 10.2 1.8 1.3 4.1 2.2 6.3 2.4 4.3.4 8.7-.1 13 .2 10.1.8 20.2 1.9 30.3 2.9 6 .6 12 1.1 18 2 5.4.8 8.9-.6 10-4.7 1.8-6.5-.3-11.7-5.4-13.3-1.2-.4-2.7-.4-3.6-1.2-5.1-4.7-8.8-9.9-8.6-17.6V146c0-1.5.1-2.9.2-4.8 3.9 0 7.5.2 11.1 0 10.4-.5 15.4 3.3 18.5 13.3.6 1.9 1.4 3.9 4.4 3.8 5.7-.3 11.5-.2 17.7-.2zm121.7 107v13c0 2.9 1.2 4.3 4.3 5 7.6 1.9 15 4.5 22.5 6.9 4 1.3 7.8 2.8 11.8 4.1l24.6 8.1c6.8 2.4 13.3 5.4 20 7.9 7.2 2.7 14.6 5 21.8 7.6 7.1 2.6 9.2 1.9 11.3-5.6 1.2-4.2 1-8.8 1.8-13.1l5.9-32.5 4.7-28.8 3.1-19.8c.4-2.5-.3-5.2-3-5.5-4.1-.4-8.3-.3-12.4.3-1.3.2-2.9 2.4-3.4 4-2.3 7.2-4.2 14.6-6.3 21.9-1.9 6.5-4.2 12.9-5.7 19.5-2.4 11-10.1 19.6-22.1 19-3-.2-5.9-1.5-8.9-1.8-5.8-.5-5.9-.4-5.9-6.1l.3-77.5v-144c0-8.4 3.1-13.5 10.9-16.1 4.5-1.4 6.2-3.6 5.5-8-.2-1.1 0-2.3 0-3.5 0-6.4-.9-7.3-7.5-7.3h-63.5c-11 0-10.8 0-11.2 11.2-.2 4.5 1.5 6.5 5.3 8.3 4.3 2.1 9.8 3.1 11.2 8.9.7 2.7 1.1 5.5 1.1 8.3l.6 190.9c0 5-1 10-1.8 14.9-.8 4.5-3.8 7.1-8 7.8-2.5.4-4.7 1.3-7 2zm-439.7-89.3l2.7 12.7c.8 4.1 1.6 8.1 2.2 12.2.8 5.5 1.2 11 2.4 16.4 1.2 5.8.1 10.5-5.4 13.1-4.8 2.3-5.7 5.5-5.2 10.1.2 2-.5 4.2.2 5.9.7 1.6 2.8 3.7 4.2 3.6 9.6-.6 19.2-1.6 28.8-2.7l32.5-3.9c2.7-.3 4.2-1.6 4.2-4.4 0-3.2-.2-6.4.1-9.5s-1.6-4.9-3.7-5.9c-5.3-2.4-8.5-6.1-9.4-12-.8-5.7-2-11.4-3-17.1L586 166l-5.1-35.8c-1.7-10.9-4-21.7-5.8-32.5-1.2-7.4-2.2-14.8-3.2-22.1l-4.6-30.9c-1-6.4 4.5-13.9 12.9-13.6 4.6.2 5.7-1 5.9-5.7.1-1.5 0-3 0-4.5 0-7-1.1-8.1-7.9-8.1h-91.5c-1.7 0-3.4-.1-5 .3-1.2.3-3 1.2-3.1 2-.4 4.3-.6 8.6-.2 12.9.1 1.1 2.4 2.1 3.8 3 .7.5 1.5.9 2.3 1.2 5.8 1.5 10.3 6.2 9.6 12.2-.7 6.3-1.6 12.6-2.5 18.9l-3.4 21.2c-.9 5.8-1.4 11.6-2.3 17.4l-4.6 28.3-4.2 29.4c-1.4 8.6-3.4 17.1-4.7 25.7l-6.1 43c-1 6.2-1.8 13.1-7.7 17.1-5.9 4.1-5.6 9.7-5.3 15.7.2 2.8 1.7 4.4 4.5 4 4.2-.6 8.3-1.5 12.4-2.4 10.5-2.2 20.9-4.6 31.4-6.4 3.3-.6 4.7-2.5 4.5-4.7-.3-4.2 2.5-9.1-2.5-12.3-.4-.2-1 0-1.5-.1-1.6-.3-3.2-.6-4.7-1.1-3.4-1.1-5.7-3.1-5.1-7.2.5-3.6.8-7.3 1.3-10.9l5.7-39c.5-3.5 1.6-5.9 6.1-5.7 10.3.4 20.7.1 31 .1 1.2.1 2.6.3 3.9.4zm384-163v.2h-31c-4 0-6.2 2.4-6.3 6.4 0 2.2-.5 4.5.1 6.4.8 2.3 2.1 4.9 4 6.1 6 3.6 9.4 8.6 9.3 15.6l-.5 178.7c0 1.2.1 2.3 0 3.5-.1.8-.2 1.6-.6 2.2-2.7 4.5-6 8.3-11.7 8.9-3.5.4-4.5 2.7-4.7 5.7-.1 1.8 0 3.7 0 5.5 0 5.6 3 8.3 8.5 9.1 7 1 14 2.4 20.9 4.1 8.9 2.1 17.6 4.7 26.4 6.8 5.9 1.5 11.9 2.7 17.9 3.8 2.9.5 7 .7 7.8-2.4 1.1-4.2 1.1-9.1.1-13.3-.6-2.4-4.2-4.1-6.5-6-.3-.3-1-.3-1.3-.6-4.2-4.4-9.7-7.9-9-15.2.4-4.5.3-9 .3-13.5V49.4c0-6.5 1.1-12.5 6.9-16.3 4.2-2.8 5.8-6.3 5.1-11.1-.1-1 0-2 0-3 0-5.8-.5-6.3-6.2-6.3l-29.5.1zm187.3 250.3c-.5-.1-1-.1-1.5-.2l-6.8 31.6c4.5 1.4 7.9.9 8.1-3.1.5-9.4.2-18.9.2-28.3z"/><path d="M88.6 373c10.5.4 20.3-.7 28.9-6.2 4-2.6 5.8-7.3 6.6-12.1l4-27.5c.9-7 1.2-14 2.1-21 .8-6.3 2-12.5 3.2-18.7.2-1.1 1.3-2.9 2.1-3 4.1-.7 3.7-3.6 3.7-6.4V46.6c0-4.3-1.7-6.4-6.7-7.6-10.6-2.6-10.3-2.1-10.2-13.4 0-5.3.3-10.7-.1-16-.2-3.9 1.8-5 4.9-5.3 1.2-.1 2.3-.1 3.5-.1h83.5c6.9 0 8 1.1 8 8 0 6-.2 12 .1 18 .2 4.2-2 5.8-5.5 6.9-2.9.9-5.5 2.4-8.4 3.2-3.6 1-3.5 3.7-3.5 6.5v231.5c0 7.6 2 14.3 7.1 20.1 5.5 6.3 12.7 6.6 19.9 5.3 11.4-2.1 17.2-9.7 18.4-21 .4-3.7.9-7.5 1-11.2l1.2-73.8-.3-51.9c0-4.8.8-9.5.7-14.3L251 48.3c-.1-5.1-3.6-8.5-10.2-10.1s-6.8-1.8-6.8-8.5V11.2c0-5.6 1.1-6.8 6.6-6.8l51.5-.1h15c4.8.1 5.9 1.2 6 5.8l.1 18c.1 3.7-1.7 5.7-4.9 7.2-2.9 1.3-5.6 3.2-8.5 4.6-3.4 1.6-4.1 4.4-4 7.8v40.5l-.3 135.5c-.1 17.1.2 34.1-.7 51.1-.6 10.9-2.3 21.9-7.5 31.9-3.4 6.5-6.1 13.6-10.4 19.4-5.7 7.7-12.3 15-21.3 19.2-7.6 3.5-14.9 7.6-22.7 10.4-4.9 1.8-10.5 2.3-15.8 2.4-7.7.2-15.6.1-23.2-1-6.4-.9-12.7-3-18.4-6.7-3.4-2.3-5-1.2-5.4 2.8-.5 5.3-1.4 10.6-1.9 16-.3 3.3.3 6.6.1 9.8l-2.1 31.2c-.3 6.2-2.1 8.2-8.4 8.2h-74H9.3c-6.7 0-7.4-.7-7.4-7.5v-20c0-6.1 1.5-7.7 7.6-8.6 7.1-1.1 8.4-2.5 8.4-9.3l.1-212V49c0-6.4-1.3-8.1-7.6-9.7-2-.5-4-1.2-5.9-2C1.6 36-.1 34.2 0 30.8c.2-6.5.1-13 .1-19.5 0-4.9 1.8-6.8 6.7-7 3.2-.1 6.3 0 9.5 0h78.5c1.5 0 3-.1 4.5.1 3.1.5 5.1 1.6 4.9 5.5-.3 7.2-.4 14.3 0 21.5.2 4-2 5.6-5 6.8-1.3.5-2.8.7-4.3 1-6.1 1.5-6.6 2-6.6 8.3V174v194.5c-.1 1.3.1 2.7.3 4.5zm46-354.4c.6-.1 1.2-.4 1.8-.4l67 .1c1.2 0 3.2 1.3 3.6 2.4.8 2.2-.1 4-2.7 4.9-11 4.1-14.4 12.8-14.3 23.8v118l.2 109c0 7.3 1.1 14.2 3.9 21 3.3 7.8 8.7 13.6 16 17.1 13.1 6.3 26 5.4 38.2-3.2 7.2-5.1 12.4-11.7 14.9-19.9 1.8-6 2.7-12.6 2.7-18.9l-.4-154-.3-71.5c-.1-6.4-1.5-12.5-7.2-16.4-2.1-1.4-4.6-2.3-6.9-3.4-2.8-1.2-4-3.2-3.5-6.3.6-3.2 3.1-2.4 5.2-2.4h42c1.3 0 2.6.2 4.1.3v6.9c-1.5.5-2.9.8-4.2 1.4-9 4-12.8 11.3-12.7 20.8l.2 211.4c0 9.2-1.4 18.4-2.5 27.5-.4 3.3-1.5 6.6-2.8 9.7-1.9 4.7-5 9.1-6.3 14-2.2 8.1-8.7 13.1-13.8 18.7-6.4 7.1-15.8 11-24.9 13.6s-18.5 4.2-28.4 2.5c-9.4-1.6-17.9-4.3-25.7-9.8-2.1-1.5-4.6-2.5-7-3.8l-1.4 1.1c1 2 1.4 4.8 3 5.9 6 4.1 11.9 8.6 19.1 10.3 15.1 3.5 30 3 44.9-1.9 16.3-5.3 28.6-15.8 37.5-29.9 9-14.1 12.7-30.3 13.1-46.8.7-26.7.6-53.5.5-80.3l-.5-141c0-7.7 2.1-14 10.2-17.2 7.5-2.9 8.2-4.6 7.7-12.7-.2-4.5-1.9-6.3-6.5-6.3-16.8-.1-33.7-.1-50.5.1-1.5 0-3.1.9-4.3 1.8-4.2 3-3.3 7.8-2.3 11.4.7 2.5 4.4 5 7.2 5.9 7 2.3 9.9 4.9 10.9 11.9.2 1.6.2 3.3.2 5l.5 175c0 17.5.5 35-.2 52.5-.6 15.3-6.8 27.4-21.8 34.1-15.1 6.8-31.2-1-38.3-13.1-3.5-5.9-3.7-12.6-3.7-19.2l-1-212.9c0-6.7-.4-13.4.1-20 .6-7.8 3.8-12.3 9.9-14.1 6.6-2 6.7-1.8 6.7-8.7v-4c-.1-3.8-1.8-5.8-5.6-5.8-23.8-.1-47.7-.1-71.5.1-1.8 0-5 1.6-5.2 2.8-.5 4.1 0 8.4.4 12.5.1.7 1.5 1.6 2.5 2 10.9 3.8 14.2 8.6 14.2 20.7l-.1 229.4v5.3l5.3-.9V280 113l-.1-64.5c-.1-10.1-2.8-18.6-14-21.8-3.5-1.1-4.5-4.2-3.1-8.1zm-51 391.2v-.2h66c6.1 0 7.2-1 7.5-6.9v-1.5l3.9-33c1-10.9 1.4-21.8 2-32.7l1-14.3 1.9-24c.3-3.7-1.7-5.4-5.4-5.4-4 .1-8 0-12 0-7.5 0-8.1.9-8.7 8.5-.7 8.4-1.9 16.8-3.1 25.2s-2.2 16.8-3.9 25c-1.2 5.6-3.3 11-5.2 16.4-1.4 3.8-5 5.6-7.9 8.1-4.5 4.1-9.4 6.2-15.4 6.1-6.7-.1-13.3-.3-20 .1-5.7.4-5.9.6-5.9-4.8L78.5 49c0-10.5 3.3-15.1 13.4-18.3 2.9-1 4.5-2.6 4.4-5.7-.1-1.8 0-3.7 0-5.5-.1-4.9-1.6-6.6-6.6-6.6l-74.5.1c-1.5 0-3.6.4-4.5 1.5-3 3.6-2.5 8.1-1.5 12.2.8 3.1 3.3 5 6.7 5.5 1.1.2 2.3.7 3.2 1.4 5.4 4.1 7.5 9.5 7.5 16.4l.3 276.9-.2 49c-.1 7.7-4.7 12.7-11.9 14.4-.9.2-1.7.8-2.5 1.2-4.7 2.5-2.8 7-2.9 10.7-.2 6.8.9 7.7 7.7 7.7l66.5-.1zm464.5-140.4c8-1.3 16-2.8 24-3.7 7.3-.8 14.7-1 22.1-1.5l21.4-1.7c6.8-.3 13.6-.1 20.3-.4 6.5-.3 13.1-1.1 19.6-1.5 3-.2 6-.4 8.9-.4h48c11.8.1 23.7-.5 35.2 1.4 14.2 2.4 28.4 1.6 42.6 3.6 9.7 1.3 19.5 1.9 29.2 3.1 5.6.7 11.1 2 16.6 2.9l19.7 3 22.9 4 29.9 6 38.5 8.6c10.8 2.6 21.5 5.4 32.2 8.5l38.9 11.9 25 8c10.7 3.9 21.3 8 31.9 12.2 9.6 3.8 19.3 7.5 28.8 11.8 12 5.4 23.9 11.1 35.8 16.8 8.1 3.9 16.1 8.1 24.2 12.1 5 2.5 10.2 4.7 15 7.4l32.8 18.7c1.3.8 2.4 3.4 2.2 5-.2 1.7-2.1 4.4-3.3 4.5-3.3.1-6.9-.2-9.8-1.6-10.5-5.4-20.8-11.3-31.1-16.9-5.6-3.1-11.2-6.3-17-9.1l-40-18.8a1090.67 1090.67 0 0 0-38.5-16.7c-8.8-3.6-17.9-6.7-26.8-9.9-9.1-3.3-18.3-6.5-27.5-9.5l-33-10.3c-3.8-1.2-7.8-1.8-11.7-2.8-4.2-1.2-8.4-2.7-12.7-3.9l-15.2-4c-7.5-1.8-15.2-2.8-22.5-5.1-15.9-5.1-32.4-7-48.6-10.7-14-3.2-28.4-5.1-42.7-7.2-7.8-1.1-15.7-1.2-23.5-2.1-8.5-1-17-2.6-25.5-3.8-1-.1-2 0-3-.1-15.3-1-30.5-2.4-45.8-2.8-24.7-.7-49.5-.7-74.2-.9-6.1 0-12.3.4-18.4.7l-42.1 2.1c-11.4.9-22.7 2.5-34 3.8-8.9 1-17.9 1.7-26.7 3.1-14.1 2.3-28.1 4.9-42.1 7.6-12.1 2.3-24.1 4.8-36.1 7.4-6.1 1.3-12.1 3.3-18.2 4.8-6.3 1.5-12.6 2.7-18.9 4.2-3.3.8-6.5 1.9-9.7 3l-32.7 10.3-33.4 10.8c-6.1 2.1-11.8 5-17.8 7.4l-37.5 14.9c-9.5 4-18.8 8.6-28.1 12.8-8.3 3.8-16.8 7.1-25 11.2-10.9 5.4-21.6 11.4-32.4 17.2l-20.7 11.4c-3.9 2.1-7.4 1.4-9.2-1.4-2.2-3.5-1.6-7.9 2.2-9.1 7.5-2.5 13-8.2 20-11.4 10.9-5.1 21.6-10.6 32.4-16l37.2-18.4c6.9-3.3 14.2-5.8 21.3-8.7l26.6-11.1c8-3.2 16.2-6 24.3-8.9 9.6-3.5 19.2-7.2 28.9-10.3 10.5-3.4 21.2-6.4 31.8-9.6 6.3-1.9 12.6-4.1 19-5.7l54.6-13.1c16.1-3.6 32.2-6.8 48.4-9.9 7.7-1.4 15.5-2.1 23.2-3.1-.3-.3-.2-.2-.2-.1zM690.4 350l11.6-33.2c2.5-7.1 5.2-14.1 8.2-21.1.4-.9 2.4-1.5 3.7-1.6 6.3-.2 12.7 0 19-.1 2.4 0 4.4.4 4.7 3.1.3 2.8.9 6.5-2.5 7.3-5.9 1.3-5.9 5.4-5.9 9.8l-.1 72.5c0 4 0 8-.3 12-.4 4.2 1.5 7 5.1 8.4 4.6 1.8 3 5.6 2.9 8.6-.1 3.2-3.1 2.2-5.1 2.3h-32.4l-.6-9.7c.1 0 .4-.3.8-.4 6.2-2.2 7-7.3 7-12.8v-50c0-.5-.2-.9-.5-2-1 .7-2.3 1.1-2.6 1.9l-10.8 33.5c-.9 2.7-2.3 5.3-3.8 7.8-.5 1-1.8 1.5-3.3 2.7l-13.9-41.7c-.4.1-.9.1-1.3.2-.2 1.4-.5 2.7-.5 4.1l-.1 49.5c0 4.5 1.1 5.5 6.4 6s6.2 1.6 5.8 6.8c-.2 2.8-1.6 4.2-4.4 4.2-9.2 0-18.3.1-27.5-.1-1.1 0-3-1.2-3.2-2.1-.4-2.9-1.4-6.9 2-8 6.4-2.3 6.1-7.1 6.1-12.3l.1-80c.1-6.4-2.4-9.7-7.8-11.8-.1-.3-.2-.6-.2-1-.2-10-.6-8.9 8.7-9.1l7.5-.1c6.9-.2 7-.1 9.2 6.3l6.5 19.6 8.1 25.7c.5 1.7 1.3 3.2 1.9 4.9.5-.1 1-.1 1.5-.1zm-46.3 68c-11.6 0-21.5.1-31.5-.1-1.1 0-3.1-1-3.1-1.6-.1-2.7-.6-6.3.9-7.8 3.2-3.2 3.5-6.5 3-10.3-.4-3.5-1.5-6.8-1.7-10.3-.2-4-2.1-5-5.8-4.7-3.8.3-7.7.2-11.5.1-2.3-.1-3.2.8-3.4 3.2-.4 4.4-1.4 8.7-1.9 13-.4 3-.4 5.9 2.7 7.9 1.2.8 2.5 1.9 3.1 3.2 2 4.2-.2 7.4-4.9 7.4h-18.7c-.2-4.7-.5-8.5 1.9-12.6 2.2-3.9 3-8.7 3.8-13.3 1.5-8.8 2.6-17.7 3.9-26.5l3-20.2 3.3-30.2c.4-3.3-1.1-5.7-3.7-6.8-3.8-1.7-3.1-4.6-3-7.5.1-3.3 3-2.6 4.9-2.9 4.1-.7 8.2-1.2 12.3-1.4l30.9-1.2c2-.1 4.5-.2 4.2 2.7-.2 2.5 2 6-2.9 7.2-6.8 1.7-6.5 4.8-5.7 11.3.8 6.9 1.9 13.8 2.9 20.7l3 19.7 3 17.7 2.5 17.4c.1.8.6 1.6.5 2.4-.8 5.9 1.8 9.9 6.2 13.9 1.7 1.4 1.1 5.7 1.8 9.6zm-42.9-94.1h-1.7l-6 45.1c4.4 0 7.9.4 11.3-.2 1.4-.2 3.7-2.5 3.6-3.6-1.2-9.1-2.8-18.2-4.4-27.3l-2.8-14zM775 313v36.4c7.9 1.8 8.9 1.5 13.2-4.8 2.5-3.8 6.3-2.4 9.5-2.1 3 .3 3 3 2.9 5.5l-.1 21c0 1.3-.3 2.6-.5 4.1-1.8 0-3.3-.2-4.7 0-4.5.8-7.2-1-9-5.1-1.1-2.6-9.3-4-11.4-2.1-.7.6-.9 2-.9 3.1l-.1 30c0 3.1 1.2 4.2 4.1 4.1 4-.1 8 .1 12-.1 3.4-.2 5.9-1.3 7-5.4 1.6-6.1 4.3-11.9 6.2-17.9 1.2-3.9 4-3.8 8.1-3.2l-3.8 41.4c-2.1.2-4.2.5-6.3.5-17.2 0-34.3 0-51.5-.1-2.2 0-5.2 1.2-6.2-2.4s.2-8.6 3-9.7c4.6-1.8 5.2-5.3 5.3-9.3l.3-50.9c0-11.6-.3-23.1-.8-34.7-.1-1.7-1.4-4.3-2.8-5-5.1-2.3-5.4-6-4.3-11 6.2 0 12.5-.2 18.7.1 9.1.4 18.1 1 27.2 1.7a132.55 132.55 0 0 1 15.4 2.1c.9.2 2.1 2.1 2.1 3.2.2 8.5.1 17 .1 25.5 0 2.8-1.2 4.4-4.2 4.1-.8-.1-1.7 0-2.5-.1-7-.3-7.2-.6-7.4-7.3 0-2.1-.4-4.2-.9-6.2-1.1-4-3.8-5.8-8.1-5.5-2.8.3-6 .1-9.6.1zm377.5 89.4l-6.2-.6-136.9.1-41 .4c-1.4 0-3.2.7-4.2 1.7-7.5 7.7-16.5 13.2-26.9 14.8-14.3 2.2-27.7-.4-39.1-10.7-6.4-5.8-10.7-12.8-14.6-20.1-1.6-3-1.6-6.9-1.8-10.4-.6-8.2-.6-16.3 3.2-24.1 3.5-7.2 7.7-13.7 14-18.8 4.9-3.9 10-7.8 16.5-8.6 4.2-.5 8.5-.6 12.7-.9 14.5-1.2 26.1 4.7 36.5 14.1 1.1 1 2.8 1.7 4.3 1.8 5 .2 10 .1 15 .1.5 0 1.1.2 1.5 0 1.5-.8 3.1-1.6 4.3-2.8.3-.4-.6-2.8-1.5-3.1-1.5-.7-3.4-.6-5.1-.6-.6 0-1.2 1.2-1.9 1.5-2.1 1.1-4.7 2.4-6-.4-.9-1.9-1.3-5.1-.3-6.7 3.2-5.1 8.7-5.3 14.1-4.6 4.3.5 8.1 4.6 9 9.3 2.1 10-3.6 17.2-13.8 17.2-6.5 0-13-.2-19.5 0-3.8.1-6.8-1.1-9.2-3.8-11.9-13.2-26.9-13.6-41.9-8.4-8.7 3-14.9 10.5-18.6 19.4-3.9 9.6-3.5 19.9.5 28.7 4.2 9.5 10.7 18.8 22.2 20.9 15 2.7 29.3 1.9 41-13.5 1.1-1.4 4-2 6-2l51-.2 132.9-.1c6.6 0 10.9 3 13.5 8.9 2.3 5.1 0 13.2-4.7 16.2-5.3 3.4-15.1 3-18-1.3-1.2-1.8-.6-4.9-.9-7.4 2.2-.1 4.5-.4 6.7-.2 1.6.2 3.2 1.7 4.6 1.4 3.9-.8 3.2-3.9 2.6-7.2zm-917.3 7.4c3.9-1.1 6.6-2.2 9.4-2.6 3.4-.4 4 1.8 3.2 4.5-1.7 5.5-9.9 9.3-15.6 7.1-5.6-2.2-9-6.2-10-12.1-.6-4.1 3.8-11.9 8.2-13.8 2.5-1 5.5-.9 8.3-.9h41.5l131.5-.1c5.9 0 9.9 2 13.4 6 6.1 7 13.6 10.2 23 10.3 8.4.1 16.1-1 23.2-5.8 7.8-5.3 13.1-12.4 14.5-21.6 1-6.3.3-13 .1-19.4-.1-1.8-1-3.7-2-5.3-1.8-3.1-3.3-6.7-5.8-9-6.2-5.6-12.8-11-22-11-2.3 0-4.7.3-7 0-10.3-1.3-18 3.6-24.8 10.3-2.7 2.7-5.3 3.9-9.1 3.7-6.7-.3-13.3 0-20-.1-6-.1-11.3-6.3-11.3-13 0-6.6 5-11.9 11.3-11.9 1.8 0 3.7.1 5.5 0 4.1-.1 6.9 1.9 8.2 5.6.5 1.5.3 4.4-.6 5-1.4.9-3.8.7-5.7.4-1.6-.3-3.1-1.6-4.7-1.9-1.8-.4-4.2-.2-3.8 2.4.2 1.6 1.9 4.1 3.1 4.2 5.3.4 10.8.9 15.9-.2 2.9-.6 5.3-4 7.9-6.1 7-5.9 14.9-9.6 24.3-9.4 6.8.1 13.7-.8 20.4 1.9 11.8 4.6 21.4 11.2 27.1 23.3 5.6 11.8 6.6 23.8 3.2 36-4.4 15.6-15.1 26-30.4 30.7-7.7 2.3-16.4 4.1-24.1 2.7-9.7-1.8-19.2-6.4-25.5-15.1-1.5-2.1-3.3-2.7-5.8-2.7-57.2 0-114.3-.1-171.5-.2-2.8 0-6 .3-6.5 3.2-.1 1.6 2.3 3.7 3 4.9zm636.6-73l-2.9.2c-8.1-.1-8.1-.1-9-8-.9-7.5-7.1-13-14.3-12.8-2.9.1-6.4 4-6.6 7.9-.2 4.3-.5 8.7.1 13 .7 4.9 4 8.4 8 11.1 5.1 3.4 10.4 6.5 15.3 10.2 5 3.9 9.8 8.4 9.8 15.6 0 10.1.7 20.2-.4 30.1-1 9-9.9 15.1-19 14.9-5.4-.1-11.1.4-16.1-1.2-4.6-1.5-8.2-.2-12.3.2-5.7.6-6.2-.2-6.2-5.9v-33c0-1 .2-2.1 0-3-.8-2.7-1.9-5 2.7-5 6.9-.1 9.1.8 9.2 5.1.1 4.5 0 9 0 13.5 0 1.3-.1 2.7 0 4 .3 4.5 4.7 9.6 8.1 9.6 8-.1 11.5-3.1 11.6-9.9.1-4.3.5-8.7 0-13-.3-2.4-1.8-5.4-3.7-6.8-6-4.5-12.8-8.1-18.8-12.8-6.4-5-9.9-12-10.2-20.3-.2-7.3-.1-14.7 0-22 .1-9.8 6.4-18.2 17-17.4 5.2.4 10.5-.9 15.4 2 2.1 1.2 4.2 2.4 6.4 3.3 1.3.5 3.7 1.1 4.1.6 3.3-4.4 6.9-.1 10.3-.5.7-.1 2.5 2 2.5 3.1.1 8.8 0 17.6-.1 26.5-.1.1-.5.4-.9.7zM571 370.7c0 4.5.2 8-.1 11.4-.1 1.3-1.4 3-2.6 3.7-3.7 2.3-5.5 5.3-5.3 9.7.2 5.8 0 11.7.1 17.5.1 3.5-1.3 5.3-4.9 5.1-10.7-.5-21.2.8-31.8 1.8-8.2.8-19.3-10-19.2-18.4.1-25 1.3-50 .1-74.9-.9-19.5 20.6-30.6 36.8-23.6 2.4 1 3.8.6 6.2-.4 3.7-1.6 8.1-1.5 12.7-2.2l-.1 29.8c0 1-1.6 2.4-2.7 2.7-1.9.4-4 0-6 .2-3.4.3-4.5-1.2-4.2-4.4.4-4.1-1.2-7.2-3.8-10.4-3.5-4.3-7.7-2-11.3-1.7-1.9.1-3.6 4.1-5 6.6-.6 1-.2 2.6-.2 3.9l.1 64.9c0 1.7.7 3.4.2 4.9-1.1 4.1 2.1 5.5 4.4 6.7 6.5 3.4 14.5-2.1 14.5-9.6v-3c0-6.5-.1-6.5-6.5-7-1.7-.1-4.6-1.3-4.8-2.3-.4-3 .2-6.2.6-9.2 0-.2 1.2-.4 1.8-.5l31-1.3zm447.8 5.7h-76.4c-2.6 0-4.8.2-7 2.5-3.8 4-11.6 2.9-14.4-1.3-3.2-4.8-1.9-12 2.9-14.9 2.4-1.5 9.1-.2 12 1.8 1.9 1.3 4.3 2.4 6.5 2.4l131.3-.3h23.5c3.3 0 6.8 2.8 6.4 5.2-.5 3.7-3.2 4.5-6.5 4.4h-78.4c.1.1.1.1.1.2zM363.1 367l73.4-.1c2.6 0 5.7-1 7.5-2.7 4-3.6 8.4-2.7 11.7-.8 2.5 1.5 4.9 5.7 4.7 8.7-.1 3.6-2.7 7.5-7 8.5-4 .9-8 1-11.4-2.6-1.1-1.2-3.4-1.6-5.2-1.6l-113.4-.2c-11.5 0-23 0-34.5-.1-1.8 0-3.8-.1-5.3-.8-1.2-.6-2.6-2.3-2.5-3.4.2-1.6 1.3-3.8 2.6-4.5 1.6-.9 3.9-.7 5.8-.7h73.4c.2 0 .2.1.2.3z"/><path d="M1316 396.6v5.8c0 .5-.3.9-.5 1.6h-76.1c-1.2-4.4-.9-7.1 4-8.9 9.3-3.5 12.4-11.4 12.7-20.7v-3.5l.1-253.9v-8.7c-5.5 0-10.2-.1-15 .1-.8 0-2.1 1.2-2.3 2.1-1.8 7.5-3.3 15-5 22.6l-4.8 20.8-6.2 32.8-4.1 20-4 17.9-5.9 28.9-5.9 28.4-4.8 21.7c-1.6-4-3.5-7.2-4.2-10.6-2.6-12.3-4.7-24.8-7.2-37.1l-8-36.9-9-43.1-5.1-22.1-8.8-38.6c-1.3-5.8-1.3-5.8-7.4-5.8-10.6 0-10.7 0-10.6 10.5l.3 189.3c0 11 4.3 18.8 13.6 24.4 1.8 1.1 2.6 3.9 4.2 6.2-5.3 1.6-8.7-.3-12.2-1.8l-16.9-7.5c-2.5-1.1-4.7-2.8-7.2-3.9-4-1.8-8.2-3.3-12.2-5.2-1.1-.6-2.4-2-2.6-3.2-.9-7.6-.4-8.1 6.7-10.6 6.9-2.4 11.1-9.2 11.1-17.9l-.1-74.5-.1-164c0-1.8.1-3.7-.1-5.5-.8-9-6.2-14.6-14-18-2.5-1.1-3.8-2.2-3.8-5-.1-3.1 1.1-4.1 4.1-4.1h52c2.7 0 3.8 1.3 4.2 3.7l5.1 27.6 4.8 22.2 6.1 27.9 6.9 34.8 6.1 27.4c1 4.3 2.2 8.6 3.2 12.4h11.1c2.1 0 3.2-.6 3.7-3l8.8-40.2 10.9-52.8 7.1-34.6 4.7-23.1c.2-.9 1.7-1.9 2.8-2.2 1.2-.4 2.6-.1 4-.1h59.5 5.2c1.8 6.7 1.2 7.4-4.2 9.8-7.9 3.4-12.9 9.8-12.9 18.3v46.5l.1 277.4c0 1 .1 2 0 3-1.3 11.8 8.4 20.1 18.1 23zM420.4 18.8h15.3c3 0 2.7 2.4 2.7 4.3v30l.1 35c.1 4.1-1.5 5.3-5.3 5-2.6-.2-5.4-.3-8 0-4 .4-5.2-1.6-5.1-5.1V65c-.1-9.6-3.2-17.8-9.5-25.2-7.1-8.2-15.7-11-25.9-9.6-9.7 1.3-19.9 11.6-21.3 21.5-.5 3.6-.9 7.3-.9 10.9l-.2 168.5c0 11.2 4.6 20.2 14.1 26.5 1 .7 2.3 1.3 3.5 1.5 11.1 1.8 21.7 2.4 31.2-6.1 5.6-5 8.5-10.8 9.9-17.6.4-2.2-.4-4.5-.4-6.8v-47c0-2.1.5-4.1.7-6.6H439c.1 1.4.3 3 .3 4.6v47c0 15.8-4.9 29.7-17.2 40-10.6 9-22.2 16.3-37.2 15.5-2.9-.2-5.8.8-8.8.9-7.9.2-15.4-.8-23-3.5-11.4-4-19.2-11.4-24-22.1-2.5-5.5-3.5-11.3-3.5-17.3l.1-185c0-8.2 2.1-15.5 7.6-22.3 6.2-7.6 13.9-11.8 22.7-15.3 15.1-6 29.7-3.5 44.2 1.5 4.1 1.4 7.9 3.6 11.9 5.3 6.6 3.1 7.5 2.5 8.3-5.5zm202.9 217.3v-69.3h12.5v8.6c0 4.7.2 9.3 0 14-.3 6.6 1.8 12.7 5.1 17.9 7.6 11.6 23.1 14.4 35.2 7.5 11-6.4 13.7-15.9 13.5-27.2-.1-8.8 0-17.6-.9-26.3-.6-5.3-4.6-9.2-9.1-12.1l-33.1-21.7c-4.3-2.8-9.1-5.3-12.6-9-4.1-4.2-7.4-9-9.2-15.1-3.4-11.3-1.4-22.7-1.9-34-.3-7.5-.1-15 0-22.5.1-15.5 11.7-26.8 25-30.9 14.2-4.4 27.5-1.6 40.6 3.4 5.3 2 9.7 6.3 14.7 9.4 1.5 1 3.5 1.3 5.9 2.2V18.6c4.8 0 9.4-.2 13.9.2.8.1 1.8 2.8 1.9 4.4.2 11 .1 22 .1 33 0 5.7-.2 11.3 0 17 .1 3.6-.9 5.4-4.8 4.9-1.1-.1-2.4-.1-3.5.1-6.3 1.3-6.6 1.1-6.7-5.4-.1-5.4.1-11-1-16.2-3.1-14-11.8-21.8-25.9-23.4-7.4-.8-13.7 1.6-19.3 5.3-5.4 3.6-7.2 9.8-7.5 15.9-.4 9.5-.4 19 0 28.5.3 7.7 3.9 14 10.3 18.3l31.2 20.8c4.6 3 9.6 5.4 14.1 8.6a20.86 20.86 0 0 1 5.8 6.7c4 7.3 7.5 14.8 7.3 23.5-.2 12.7.4 25.3-.2 38-.4 10.8-4.9 20.5-13.4 27.3-11.9 9.5-25.8 11.8-40.9 9.6-6.2-.9-12-2.1-17.4-5-3.4-1.8-6.5-4-9.9-5.8-1.6-.8-3.8-1.6-5.4-1.2-.9.2-1.4 3-1.5 4.7-.2 8.9.9 7.8-8.2 7.9-1.6-.2-3-.2-4.7-.2zM749.4 18.6l5.4-.4h108.5c6.6 0 6.6 0 6.6 6.7l.1 42c.1 4-1.4 5.2-5.3 5.1-12.7 0-11.7.8-11.6-11.5.1-12.8-4.7-19.6-17-23.6-.9-.3-1.9-.6-2.8-.6h-28c-3.6 0-5 1.3-5 5l.1 74c0 3.6 1.3 5.1 5 5 6.2-.2 12.3 0 18.5-.1 8.3-.2 12.5-5.6 15.9-12.2.6-1.3 1-2.7 1.6-4.4 2.8 0 5.6.2 8.4 0 3.2-.3 3.9 1.2 3.9 4.1v41c0 3.7-1.4 4.4-4.8 4.4-4.9 0-8.2-.5-10.5-6.2-3-7.4-9-12.5-18.2-11.7-4.8.4-9.7 0-14.5.1-4.6 0-5.7 1-5.7 5.5v54c.1 7.9.2 15.9.9 23.8.5 5.9 4.1 10.3 8.9 13.7 1.8 1.3 4.2 1.7 5.9 3.1 1.1.9 2.1 2.8 2 4.2-.1 1-2.3 2.8-3.1 2.6-7.1-2.2-14.9 1.1-21.8-2.7-.3-.1-.7-.1-1-.1l-37.4-2.3c-1.6-.1-4.3-1.4-4.4-2.4-.3-2.2-1.5-5.1 2.1-6.7 3.5-1.6 6.8-3.9 9.6-6.5 3.5-3.3 3.5-8.2 4.3-12.7.1-.7.1-1.3.1-2l.4-157.8c0-10.5-4-18.4-14.7-21.9-3.9-1.4-3-4.9-2.4-8.5zm235.1 0l4.8-.3h61c2.1 0 5-1.1 5.5 2.5.5 3.1-.5 4.7-3.8 6.2-8.6 3.8-13.2 10.7-13.2 20.4l.1 225.9c0 3.2.6 5.2 4.3 5.9 2.9.6 5.4 2.8 8.3 3.5 1.9.5 4.1-.4 6.1-.6 3.9-.4 7.8-.4 11.7-1.1 7-1.3 11-6.9 13.3-12.5 3.9-9.4 6.3-19.5 9.3-29.4l6.3-20.7c.2-.1.5-.3.8-.3 7.5-.2 7.4-.1 6.1 7.3-1.7 9.1-2.7 18.3-4.1 27.4-1.5 9.4-3.3 18.8-5 28.2l-4.9 26.7c-.9 5.6-2.1 6.3-7.5 4.1l-20.8-8.5-22.7-8.8c-3-1.1-6.2-1.6-9.3-2.6-5.8-1.9-11.4-4.1-17.2-5.9-3.7-1.2-7.5-1.9-11.1-3.1-4.8-1.5-9.7-3-14.3-5.2-1.3-.6-2-3.5-1.9-5.3 0-1.6 1.1-3.5 2.3-4.6 1.7-1.4 4-1.9 5.9-3.1 6.6-4.1 7.2-10.7 7.2-17.5l.1-142.4-.1-55c0-3.7-1-7.4-1.7-11.1-1.2-5.8-5.3-8.9-10.5-10.9-5.6-1.6-6.1-2.5-5-9.2zM542.6 243.5c-2.1-5.2.6-7.6 3.7-9.1 4.8-2.3 6.9-6 6.6-10.9-.6-7.2-1.5-14.3-2.6-21.4-1.3-8.5-2.9-16.9-4.3-25.3-.9-5.5-1.9-6.5-7.4-6.5h-37.5c-5.1 0-5.6 1-6.2 5.8-.9 7.4-2.4 14.7-3.4 22.1-1.5 10.9-3.2 21.8-4.2 32.8-.6 6.7 3.5 11.2 10.1 13.3 1.1.4 2.6 2.2 2.5 3.2-.1 1.3-1.5 3.4-2.7 3.6-7.7 1.9-15.5 3.5-23.3 5-4.7 1-9.5 1.7-14.3 2.6-1.4-3.5-.3-5.5 1.7-7.6 7-7.4 10-16.5 10.8-26.6.4-5.5 2-10.8 2.9-16.3 1.1-6.4 1.9-12.9 3-19.3l5.8-35.5c1-6.6 1.4-13.4 2.3-20 .9-6.9 2.1-13.8 3.2-20.7l2.8-16.8c1.5-8.9 3.2-17.8 4.3-26.8 1.2-9.7 2.3-19.6 2.5-29.4.1-5.1-4.3-9.6-8.3-10.9-5.9-1.8-7.3-4.8-6.3-10.4h95.6v5.7c-4.1 1.7-8.5 2.9-12.2 5.3-4 2.5-5.6 6.4-5.8 11.7-.4 12.8 2.6 24.9 5 37.2 1.6 8.6 2 17.5 3.2 26.2.9 6.4 2.1 12.8 3.2 19.1l4.8 28.4 4 23.1 3.8 22c.9 5.4 2.2 10.8 2.9 16.2.9 6.7 4.7 11.3 10.2 14.5 3.8 2.2 1.9 5.3 2 7.9.1 2.9-2.7 2-4.6 2.3l-29.1 3.8c-8.3 1-16.6 1.2-24.7 1.7zm-22-87.5h17c5.3 0 6.1-.6 5.3-5.6-1.3-8.5-3-16.9-4.5-25.3L534 98.6l-2.7-16.8c-1.1-6.3-2.7-12.6-3.2-19-.6-7.2-1.8-8.8-9.1-8.8h-.5c-5 0-5.7.7-6.4 5.8-.5 3.9-1.2 7.7-1.7 11.5l-3.3 21.6-3 19.8c-.9 5.2-2.1 10.4-2.9 15.7l-3 21.6c-.6 3.9.9 5.8 5.1 5.8 5.6.3 11.5.2 17.3.2zM954.2 18.8c1.5 4.8.6 8.4-3.7 11.2-5.4 3.4-8.2 8.4-7.8 15 .1 2-.1 4-.1 6v185.9c0 6.2.2 12.3 5.3 16.7 2.7 2.4 5.7 4.5 8.5 6.7 1.2 1 2.7 2 3.2 3.3 1.7 4.1-.2 6.4-4.5 5.5l-26-5.4L898 257c-2.8-.6-5.5-1.8-8-3.1-2.1-1.1-1.4-8 1-8.7 12-3.5 15.1-12.6 15.1-23.7l-.3-171.9c0-7.7-.9-15.7-9-20.3-1.5-.8-2.5-2.6-3.5-4.1-2-3-.6-6.9 2.7-6.9h57c.3.1.6.3 1.2.5zm-863.6-.1v6.6c-1.3.5-2.7 1.4-4.2 1.7-8.9 2.1-12 8.6-13.1 16.7-.2 1.8-.1 3.7-.1 5.5l-.1 328.5c0 9.4 0 9.5 9.7 9.4 8.7-.1 17.6.1 26.2-1.1 8.3-1.2 15.5-5.7 20.8-12.4 6.1-7.9 8.4-17.1 9.3-27 .7-8.1 2.5-16 3.7-24 1-6.7 1.9-13.4 2.6-20.1.3-3.1 1.4-4.6 4.7-4.3s7.1-.6 9.7.9c1.3.8.4 5.5.2 8.5l-3 32.8v1.5l-2 28-3.3 34.2H15.4V396c10.3-3.8 17.3-13.7 17.2-24.7l-.8-323.5c0-6.4-1.4-12.7-7-17-1.9-1.4-4.2-2.2-6.2-3.4-1.5-.9-3.5-1.5-4.3-2.8-1.8-3.3.1-6 4.2-6H88c.8-.2 1.4 0 2.6.1zm446.6 132.1h-32.8l2-17.5c1.1-8.2 2.4-16.4 3.7-24.6l4.6-27.8 3.5-18.6c.2-1 1.7-1.8 2.6-2.7.5.2 1.1.4 1.6.6l14.8 90.6zm-16-56.1c-.3 0-.6 0-.9-.1-.8 1.4-2 2.7-2.2 4.2-.9 6.1-1.4 12.3-2.2 18.5-.9 6.9-1.9 13.8-3 20.7-.6 4 .9 6.1 5.1 6.1 2 0 4-.1 6 0 3.2.2 4.1-1.8 3.8-4.3l-3.9-28.4c-.8-5.6-1.8-11.2-2.7-16.7z"/></svg>