<svg width="26" height="16" viewBox="0 0 26 16" fill="none" xmlns="http://www.w3.org/2000/svg">
<path d="M18.403 3.97862L19.9233 5.77127C20.0973 5.97549 20.2486 6.13433 20.3167 6.23266C20.7705 6.6865 21.0277 7.29917 21.0277 7.93454C20.9823 8.68337 20.4982 9.19771 20.0444 9.74988L18.9779 10.9979L18.4257 11.6484C18.403 11.6711 18.3954 11.7014 18.3879 11.7316C18.3803 11.7619 18.3879 11.7921 18.403 11.8148C18.4181 11.8451 18.4333 11.8678 18.4635 11.8829C18.4862 11.898 18.5165 11.9056 18.5467 11.9056H24.0986C24.9458 11.9056 26.0123 12.6166 25.9518 13.6982C25.9518 14.1899 25.7476 14.6589 25.3996 15.0068C25.0441 15.3547 24.5676 15.5514 24.0684 15.5514H15.3699C14.795 15.5514 13.2595 15.6119 12.8284 14.3034C12.7376 14.0311 12.7225 13.7361 12.7906 13.4562C12.9192 13.0402 13.1158 12.6469 13.373 12.2989C13.8117 11.6484 14.2807 11.0055 14.7496 10.3777C15.3547 9.55322 15.9674 8.75901 16.5801 7.91941C16.6028 7.88916 16.6103 7.8589 16.6103 7.82108C16.6103 7.78326 16.5952 7.75301 16.5801 7.72275L14.3714 5.12833C14.3563 5.1132 14.3412 5.09807 14.3185 5.08295C14.2958 5.07538 14.2731 5.06782 14.2504 5.06782C14.2277 5.06782 14.205 5.07538 14.1823 5.08295C14.1596 5.09051 14.1445 5.10564 14.1294 5.12833C13.5394 5.91498 10.945 9.40194 10.3928 10.1129C9.84065 10.8164 8.47914 10.8618 7.72275 10.1129L4.26605 6.69406C4.24335 6.67137 4.2131 6.65624 4.18284 6.64868C4.15259 6.64111 4.12233 6.64868 4.09208 6.65624C4.06182 6.67137 4.03913 6.6865 4.024 6.71675C4.00887 6.73945 3.99374 6.7697 4.00131 6.79995V13.373C4.00887 13.842 3.87272 14.2958 3.60042 14.6816C3.32812 15.0673 2.94993 15.3547 2.50365 15.5136C2.21623 15.6119 1.91367 15.6422 1.61868 15.5968C1.32369 15.5514 1.03626 15.4455 0.794211 15.2715C0.544602 15.0976 0.34794 14.8706 0.21179 14.6059C0.0756393 14.3412 0 14.0462 0 13.7512V1.9288C0.0226917 1.50522 0.173971 1.09677 0.446271 0.756391C0.718572 0.423579 1.08164 0.181534 1.49765 0.0680752C1.85316 -0.0226917 2.23135 -0.0226917 2.58686 0.0680752C2.94236 0.166406 3.26761 0.347941 3.53235 0.612678L8.84978 5.85447C8.8649 5.86959 8.8876 5.88472 8.90272 5.89229C8.92542 5.89985 8.94811 5.89985 8.9708 5.89985C8.99349 5.89985 9.01618 5.89228 9.03131 5.87716C9.054 5.86959 9.06913 5.85447 9.08426 5.83178L12.8586 0.680752C13.0326 0.468963 13.252 0.302557 13.5016 0.189098C13.7512 0.0756396 14.0235 0.00756484 14.2958 0.00756484H24.1137C24.386 0.00756484 24.6508 0.068077 24.8928 0.173972C25.1349 0.28743 25.3542 0.446271 25.5358 0.642933C25.7097 0.839594 25.8459 1.07408 25.9215 1.33125C25.9972 1.58842 26.0199 1.85316 25.982 2.1179C25.914 2.57173 25.6795 2.98774 25.324 3.28274C24.9685 3.57773 24.5146 3.74414 24.0457 3.73657H18.5467C18.5165 3.73657 18.4938 3.74413 18.4711 3.75926C18.4484 3.77439 18.4257 3.79709 18.4181 3.81978C18.403 3.84247 18.403 3.87272 18.403 3.89542C18.3803 3.92567 18.3879 3.95593 18.403 3.97862Z" fill="white"/>
</svg>
