<svg xmlns="http://www.w3.org/2000/svg" viewBox="0 0 1000 402.5" fill="#fff" xmlns:v="https://vecta.io/nano"><path d="M474.8 92.5h-.3v108.7c4.8 0 9.7-1.1 14.4-3.4 14.2-6.9 26.4-24.1 26.4-51.5-.1-52.3-35.7-53.8-40.5-53.8zm-163.3 172h34.1l-17.4-144.4zM0 0v402.5h1000V0H0zm846.3 231.8h-54.7v77.5h54.7v60.8H731V63.8l-48.6 306.3-71.1.2L575 152.9h0c5.9 35-16.2 71.7-35.7 86.1l38.5 131.1h-.1-.1v.1h-.1-59.6.1l-29.3-111.8-14.2 2.1v109.7h-.1-.1v.1h-.1l-115.5-.1-7.1-52h-47.4l-7.1 52H179.5v-163l-27.4 162.9h-32.4L91.9 207.2v162.9h-61V32.2h77.5l27.2 174.6 27.9-174.6H241V343l46.6-310.8h81l45.1 300 .2-300h61.9c55.7 0 81 40.8 88.1 54.9L557 32.2h61.8L646.6 238l28.2-205.8h171.4v61.6h-54.7v76.3h54.7v61.7zM969.2 370H856.8V32.1h60.5v277.1h51.9V370z"/></svg>