<svg width="54" height="48" viewBox="0 0 54 48" fill="none" xmlns="http://www.w3.org/2000/svg">
<path d="M1 1H42.0696L53 14.5157V47H11.9303L1 33.4843V1Z" fill="url(#paint0_linear_760_2039)" stroke="url(#paint1_linear_760_2039)" stroke-width="2"/>
<path d="M17.3591 25.8206L17.4396 25.6942L22.2926 18.1023C22.3635 17.9911 22.5303 18.0026 22.5839 18.1233C23.3947 19.9403 24.0942 22.2001 23.7665 23.6069C23.6266 24.1857 23.2433 24.9697 22.812 25.6942C22.7564 25.7996 22.6951 25.9031 22.6299 26.0028C22.5992 26.0487 22.5475 26.0756 22.4919 26.0756H17.5009C17.3667 26.0756 17.2882 25.9299 17.3591 25.8206Z" fill="white"/>
<path d="M39.012 27.2308V28.4325C39.012 28.5015 38.9698 28.5628 38.9085 28.5897C38.5326 28.7507 37.2458 29.341 36.7108 30.0847C35.3454 31.9841 34.3022 34.7 31.9703 34.7H22.242C18.794 34.7 16 31.8978 16 28.4402V28.329C16 28.237 16.0748 28.1623 16.1669 28.1623H21.59C21.6974 28.1623 21.776 28.2619 21.7664 28.3673C21.7281 28.72 21.7933 29.0803 21.9601 29.4081C22.2823 30.0617 22.9496 30.4699 23.6707 30.4699H26.3554V28.375H23.7013C23.5652 28.375 23.4847 28.2178 23.5633 28.1067C23.592 28.0626 23.6247 28.0166 23.6592 27.9648C23.9104 27.6084 24.269 27.0544 24.6257 26.4238C24.8692 25.9984 25.1051 25.5441 25.2949 25.0879C25.3333 25.0055 25.364 24.9212 25.3946 24.8387C25.4464 24.6931 25.5001 24.557 25.5385 24.4209C25.5768 24.3059 25.6075 24.1852 25.6382 24.0721C25.7283 23.6849 25.7667 23.2748 25.7667 22.8492C25.7667 22.6825 25.759 22.5081 25.7437 22.3413C25.736 22.1592 25.713 21.9772 25.69 21.7951C25.6746 21.6341 25.6459 21.475 25.6152 21.3083C25.5768 21.0648 25.5231 20.8233 25.4618 20.5799L25.4407 20.4879C25.3946 20.3212 25.3563 20.1621 25.3026 19.9953C25.1511 19.4721 24.9766 18.9622 24.7925 18.485C24.7254 18.2953 24.6487 18.1132 24.572 17.9311C24.4588 17.657 24.3438 17.4078 24.2383 17.1721C24.1846 17.0647 24.1386 16.967 24.0926 16.8673C24.0408 16.7542 23.9871 16.6412 23.9334 16.5338C23.895 16.4514 23.8509 16.3747 23.8203 16.2981L23.4923 15.6924C23.4463 15.61 23.523 15.5122 23.6131 15.5372L25.665 16.093H25.6708C25.6746 16.093 25.6766 16.0949 25.6785 16.0949L25.9489 16.1697L26.2461 16.254L26.3554 16.2847V15.0657C26.3554 14.4772 26.8272 14 27.4101 14C27.7016 14 27.9662 14.1188 28.1561 14.3124C28.3459 14.506 28.4648 14.7705 28.4648 15.0657V16.875L28.6834 16.9363C28.7007 16.9421 28.718 16.9497 28.7333 16.9612C28.787 17.0015 28.8637 17.0609 28.9615 17.1337C29.0382 17.1951 29.1207 17.2698 29.2204 17.3465C29.4179 17.5056 29.6538 17.7107 29.9127 17.9464C29.9817 18.0058 30.0488 18.0672 30.1102 18.1285C30.4439 18.439 30.8178 18.8032 31.1745 19.2057C31.2742 19.3187 31.372 19.4337 31.4717 19.5545C31.5715 19.6772 31.6769 19.7979 31.769 19.9187C31.8898 20.0797 32.0202 20.2464 32.1333 20.4209C32.187 20.5033 32.2484 20.5876 32.3002 20.67C32.4459 20.8904 32.5744 21.1185 32.6971 21.3466C32.7489 21.452 32.8026 21.567 32.8486 21.6801C32.9848 21.9848 33.0922 22.2953 33.1612 22.6059C33.1823 22.6729 33.1976 22.7458 33.2053 22.8109V22.8262C33.2283 22.9183 33.236 23.016 33.2436 23.1157C33.2743 23.4338 33.259 23.752 33.19 24.0721C33.1612 24.2082 33.1229 24.3366 33.0768 24.4727C33.0308 24.603 32.9848 24.7391 32.9253 24.8675C32.8103 25.1339 32.6741 25.4003 32.513 25.6495C32.4612 25.7415 32.3999 25.8392 32.3385 25.9312C32.2714 26.029 32.2024 26.121 32.141 26.2111C32.0566 26.3261 31.9665 26.4468 31.8745 26.5542C31.792 26.6673 31.7076 26.7803 31.6155 26.88C31.4871 27.0314 31.3644 27.1752 31.2359 27.3132C31.1592 27.4033 31.0767 27.4953 30.9923 27.5777C30.9098 27.6697 30.8255 27.7521 30.7488 27.8287C30.6203 27.9572 30.5129 28.0568 30.4228 28.1392L30.2118 28.3328C30.1812 28.3597 30.1409 28.375 30.0987 28.375H28.4648V30.4699H30.5206C30.9808 30.4699 31.418 30.307 31.7709 30.008C31.8917 29.9026 32.4191 29.4464 33.0423 28.7584C33.0634 28.7353 33.0903 28.7181 33.1209 28.7104L38.7991 27.0698C38.9046 27.0391 39.012 27.1196 39.012 27.2308Z" fill="white"/>
<defs>
<linearGradient id="paint0_linear_760_2039" x1="27.1475" y1="7.15373e-08" x2="27.1475" y2="48" gradientUnits="userSpaceOnUse">
<stop stop-color="#264D48"/>
<stop offset="1" stop-color="#1D2B2C"/>
</linearGradient>
<linearGradient id="paint1_linear_760_2039" x1="27" y1="0" x2="27" y2="48" gradientUnits="userSpaceOnUse">
<stop stop-color="#BF8F5F"/>
<stop offset="0.0001" stop-color="#BF8F5F"/>
<stop offset="1" stop-color="#F4D6B4"/>
</linearGradient>
</defs>
</svg>
