<svg width="54" height="40" viewBox="0 0 54 40" fill="none" xmlns="http://www.w3.org/2000/svg">
<path d="M1 1H42.0696L53 14.5157V39H11.9303L1 25.4843V1Z" fill="url(#paint0_linear_838_69)" stroke="url(#paint1_linear_838_69)" stroke-width="2"/>
<path d="M40 23.2308V24.4325C40 24.5015 39.9578 24.5628 39.8965 24.5897C39.5209 24.7507 38.2348 25.341 37.7 26.0847C36.3353 27.9841 35.2927 30.7 32.962 30.7H23.2388C19.7926 30.7 17 27.8978 17 24.4402V24.329C17 24.237 17.0747 24.1623 17.1668 24.1623H22.5871C22.6944 24.1623 22.773 24.2619 22.7634 24.3673C22.7251 24.72 22.7903 25.0803 22.957 25.4081C23.279 26.0617 23.946 26.4699 24.6667 26.4699H27.35V24.375H24.6973C24.5613 24.375 24.4808 24.2178 24.5594 24.1067C24.5881 24.0626 24.6207 24.0166 24.6552 23.9648C24.9063 23.6084 25.2647 23.0544 25.6212 22.4238C25.8646 21.9984 26.1003 21.5441 26.2901 21.0879C26.3284 21.0055 26.3591 20.9212 26.3898 20.8387C26.4415 20.6931 26.4952 20.557 26.5335 20.4209C26.5718 20.3059 26.6025 20.1852 26.6332 20.0721C26.7233 19.6849 26.7616 19.2748 26.7616 18.8492C26.7616 18.6825 26.7539 18.5081 26.7386 18.3413C26.7309 18.1592 26.7079 17.9772 26.6849 17.7951C26.6696 17.6341 26.6409 17.475 26.6102 17.3083C26.5718 17.0648 26.5182 16.8233 26.4568 16.5799L26.4358 16.4879C26.3898 16.3212 26.3514 16.1621 26.2978 15.9953C26.1464 15.4721 25.9719 14.9622 25.7879 14.485C25.7209 14.2953 25.6442 14.1132 25.5675 13.9311C25.4544 13.657 25.3394 13.4078 25.234 13.1721C25.1803 13.0647 25.1343 12.967 25.0884 12.8673C25.0366 12.7542 24.9829 12.6412 24.9293 12.5338C24.8909 12.4514 24.8468 12.3747 24.8162 12.2981L24.4884 11.6924C24.4424 11.61 24.5191 11.5122 24.6092 11.5372L26.66 12.093H26.6658C26.6696 12.093 26.6715 12.0949 26.6734 12.0949L26.9437 12.1697L27.2408 12.254L27.35 12.2847V11.0657C27.35 10.4772 27.8215 10 28.4042 10C28.6955 10 28.96 10.1188 29.1498 10.3124C29.3395 10.506 29.4584 10.7705 29.4584 11.0657V12.875L29.6768 12.9363C29.6941 12.9421 29.7114 12.9497 29.7267 12.9612C29.7803 13.0015 29.857 13.0609 29.9548 13.1337C30.0314 13.1951 30.1139 13.2698 30.2135 13.3465C30.4109 13.5056 30.6467 13.7107 30.9054 13.9464C30.9744 14.0058 31.0415 14.0672 31.1028 14.1285C31.4364 14.439 31.8101 14.8032 32.1666 15.2057C32.2663 15.3187 32.364 15.4337 32.4637 15.5545C32.5634 15.6772 32.6688 15.7979 32.7608 15.9187C32.8815 16.0797 33.0118 16.2464 33.1249 16.4209C33.1786 16.5033 33.2399 16.5876 33.2917 16.67C33.4373 16.8904 33.5658 17.1185 33.6884 17.3466C33.7402 17.452 33.7939 17.567 33.8398 17.6801C33.9759 17.9848 34.0833 18.2953 34.1523 18.6059C34.1734 18.6729 34.1887 18.7458 34.1964 18.8109V18.8262C34.2193 18.9183 34.227 19.016 34.2347 19.1157C34.2653 19.4338 34.25 19.752 34.181 20.0721C34.1523 20.2082 34.1139 20.3366 34.0679 20.4727C34.0219 20.603 33.9759 20.7391 33.9165 20.8675C33.8015 21.1339 33.6654 21.4003 33.5044 21.6495C33.4527 21.7415 33.3914 21.8392 33.33 21.9312C33.2629 22.029 33.1939 22.121 33.1326 22.2111C33.0483 22.3261 32.9582 22.4468 32.8662 22.5542C32.7838 22.6673 32.6994 22.7803 32.6074 22.88C32.479 23.0314 32.3564 23.1752 32.2279 23.3132C32.1513 23.4033 32.0689 23.4953 31.9845 23.5777C31.9021 23.6697 31.8178 23.7521 31.7411 23.8287C31.6127 23.9572 31.5053 24.0568 31.4153 24.1392L31.2044 24.3328C31.1738 24.3597 31.1335 24.375 31.0914 24.375H29.4584V26.4699H31.513C31.973 26.4699 32.41 26.307 32.7627 26.008C32.8834 25.9026 33.4105 25.4464 34.0334 24.7584C34.0545 24.7353 34.0814 24.7181 34.112 24.7104L39.7873 23.0698C39.8927 23.0391 40 23.1196 40 23.2308Z" fill="url(#paint2_linear_838_69)"/>
<path d="M18.3684 21.8202L18.4489 21.6937L23.302 14.1018C23.3728 13.9906 23.5396 14.0021 23.5933 14.1228C24.404 15.9399 25.1036 18.1996 24.7759 19.6064C24.6359 20.1852 24.2526 20.9692 23.8214 21.6937C23.7658 21.7991 23.7045 21.9026 23.6393 22.0023C23.6086 22.0483 23.5569 22.0751 23.5013 22.0751H18.5103C18.3761 22.0751 18.2975 21.9294 18.3684 21.8202Z" fill="url(#paint3_linear_838_69)"/>
<defs>
<linearGradient id="paint0_linear_838_69" x1="27.1475" y1="5.96144e-08" x2="27.1475" y2="40" gradientUnits="userSpaceOnUse">
<stop stop-color="#264D48"/>
<stop offset="1" stop-color="#1D2B2C"/>
</linearGradient>
<linearGradient id="paint1_linear_838_69" x1="27" y1="0" x2="27" y2="40" gradientUnits="userSpaceOnUse">
<stop stop-color="#BF8F5F"/>
<stop offset="0.0001" stop-color="#BF8F5F"/>
<stop offset="1" stop-color="#F4D6B4"/>
</linearGradient>
<linearGradient id="paint2_linear_838_69" x1="28.5" y1="10" x2="28.5" y2="30.7" gradientUnits="userSpaceOnUse">
<stop stop-color="#D5BF91"/>
<stop offset="1" stop-color="#D9BE81"/>
</linearGradient>
<linearGradient id="paint3_linear_838_69" x1="21.6001" y1="14.0249" x2="21.6001" y2="22.0751" gradientUnits="userSpaceOnUse">
<stop stop-color="#D5BF91"/>
<stop offset="1" stop-color="#D9BE81"/>
</linearGradient>
</defs>
</svg>
