<svg xmlns="http://www.w3.org/2000/svg" viewBox="0 0 462.67 60.67" fill="#fff" xmlns:v="https://vecta.io/nano"><path d="M22.19 57.68c-6.76 0-12.85-1.54-15.89-3.72-.23-.17-.36-.44-.36-.72l-.06-11.67a.91.91 0 0 1 1.53-.67c3.22 2.98 7.76 5.46 12.46 5.46 5.22 0 6.46-1.89 6.6-3.63 0-.15.07-.29.07-.44 0-1.45-.87-3.12-4.57-5.01l-7.76-3.85c-5.59-2.97-8.92-7.11-8.92-14.15 0-8.27 7.04-15.45 21.04-15.45 7.32 0 11.49 1.71 14.12 3.5.25.17.39.45.39.75v10.63c0 .76-.87 1.18-1.46.72-2.68-2.07-6.56-4.14-11.09-4.14-5.08 0-5.95 1.6-6.17 2.98v.44c0 1.16.65 2.54 4.14 4.5 4.28 2.25 6.67 3.63 9.07 5.01 2.39 1.45 7.91 5.01 7.91 13.78S35.62 57.67 22.2 57.67h-.01zm61.32-.07H49.96a.97.97 0 0 1-.97-.97v-37.2c0-5.22-.78-9.08-4.23-10.53-.38-.16-.64-.5-.64-.91v-.24a.97.97 0 0 1 .97-.97h34.3c.4 0 .76.25.91.63l3.54 9.41a.97.97 0 0 1-.91 1.31H66.39a.97.97 0 0 0-.97.97v6.64a.97.97 0 0 0 .97.97h11.56c.69 0 1.16.7.89 1.34l-3.46 8.32a.97.97 0 0 1-.89.6H66.4a.97.97 0 0 0-.97.97v7.37a.97.97 0 0 0 .97.97h13.58c.4 0 .76.25.91.63l3.54 9.41a.97.97 0 0 1-.91 1.31v-.03zm38.78 0H88.74a.97.97 0 0 1-.97-.97v-37.2c0-5.22-.78-9.08-4.23-10.53-.38-.16-.64-.5-.64-.91v-.24a.97.97 0 0 1 .97-.97h34.3c.4 0 .76.25.91.63l3.54 9.41a.97.97 0 0 1-.91 1.31h-16.54a.97.97 0 0 0-.97.97v6.64a.97.97 0 0 0 .97.97h11.56c.69 0 1.16.7.89 1.34l-3.46 8.32a.97.97 0 0 1-.89.6h-8.09a.97.97 0 0 0-.97.97v7.37a.97.97 0 0 0 .97.97h13.58c.4 0 .76.25.91.63l3.54 9.41a.97.97 0 0 1-.91 1.31v-.03zm27.91.07l-22.67-.07a.97.97 0 0 1-.97-.97v-37.2c0-5.22-.78-9.08-4.23-10.53-.38-.16-.64-.5-.64-.91v-.24a.97.97 0 0 1 .97-.97h27.53c18.54 0 26.68 12.8 26.68 25.45s-8.36 25.45-26.68 25.45h0zm-3.49-40.21h-2.81a.97.97 0 0 0-.97.97v27.37a.97.97 0 0 0 .97.97h2.81c11.63 0 12.87-10.25 12.87-14.61s-1.24-14.69-12.87-14.69h0zM256.46 7.23v.1c0 .46-.29.85-.71 1.03-1.13.48-1.16-.59-1.96.37l-.97 1.27c-.34.41-1.54 2-1.84 2.49l-17.8 24.55-11.44 15.42-2.18 2.98-.02.02h.02l-1.13 1.55c-.49 0-1.04-.32-1.18-.79l-.22-.76-2.85-29.01-23.66 28.99-1.26 1.55a1.09 1.09 0 0 1-1.05-.79l-.22-.76-10.68-36.63-1.29-3.83-.7-1.64c-1.01-2.07-2.22-3.64-3.9-4.59l-.73-.36c-.02-.01-.03-.02-.05-.03-.27.08-.56.28-1.18.02-.42-.18-.71-.57-.71-1.03v-.1c0-.6.49-1.09 1.09-1.09h19.41c.51.01.95.36 1.07.85l1.48 6.33 5.23 22.27.55 2.56c.09.38.32.69.62.88.02.02.05.05.07.05.87.83 1.94-.02 1.94-.02l-4.57-19.07 10.09-13.82c.14-.46 2.93-.21 3.41-.21h12.83c.48 0 .96.51 1.1.97l3.21 12.31.83 3.21 2.38 9.14.62 2.52c.08.42.34.75.68.94.03.03.07.05.1.06.84.53 1.75-.23 1.75-.23l-4.16-15.64 9.2-13.09h5.56l12.13-.03c.6 0 1.09.49 1.09 1.09zm23.39 49.15c-18.4 0-31.57-11.2-31.57-26.71S261.53 3.03 280 3.03s31.8 10.99 31.8 26.64c0 12.85-9.92 26.71-31.95 26.71h0zm.15-41.72c-7.95 0-13.32 5.67-13.32 15.01s5.53 15.15 13.32 15.15 13.4-5.74 13.4-15.15-5.38-15.01-13.4-15.01zm82.83 42.33h-15.91c-.37 0-.7-.21-.87-.54l-4.89-9.79c-4.58-9.23-5.89-9.45-8.29-9.45h-1.31v18.81a.97.97 0 0 1-.97.97h-14.5a.97.97 0 0 1-.97-.97v-37.2c0-5.22-.78-9.08-4.23-10.53-.38-.16-.64-.5-.64-.91v-.24a.97.97 0 0 1 .97-.97h28.41c10.54 0 17.31 6.04 17.31 15.34 0 4.22-2.59 8.79-6.83 10.71-.66.3-.76 1.19-.18 1.64 2.27 1.74 3.97 4.6 5.63 7.5l8.11 14.18a.97.97 0 0 1-.84 1.45h0zm-28.51-40.72h-1.79a.97.97 0 0 0-.97.97v9.19a.97.97 0 0 0 .97.97h1.79c3.85 0 6.11-2.04 6.11-5.6s-2.25-5.53-6.11-5.53zm68.71 31.11v8.53a.97.97 0 0 1-.97.97h-33.98a.97.97 0 0 1-.97-.97v-37.2c0-5.22-.78-9.08-4.23-10.53-.38-.16-.64-.5-.64-.91v-.24a.97.97 0 0 1 .97-.97h19.37a.97.97 0 0 1 .97.97v38.42a.97.97 0 0 0 .97.97h17.55a.97.97 0 0 1 .97.97h0zm27.11 9.5l-22.71-.07c-.62 0-1.12-.51-1.12-1.13V18.31c0-5.25-.78-9.13-4.23-10.6-.41-.18-.68-.58-.68-1.03h0a1.13 1.13 0 0 1 1.13-1.13h27.62c18.7 0 26.91 12.91 26.91 25.66s-8.43 25.66-26.91 25.66h-.01zm-3.52-40.55h-2.69a1.13 1.13 0 0 0-1.13 1.13v27.3a1.13 1.13 0 0 0 1.13 1.13h2.69c11.73 0 12.98-10.34 12.98-14.74s-1.25-14.81-12.98-14.81h0z"/></svg>