<svg xmlns="http://www.w3.org/2000/svg" viewBox="0 0 1704.56 842.3" fill="#fff" xmlns:v="https://vecta.io/nano"><path d="M269.84 707.72c5.75 12.12-2.75 13.94-11.66 16.8-15.51 4.97-30.61 11.18-46.04 16.41-2.58.87-6.67.38-8.85-1.17-40.18-28.63-73.17-64.34-100.72-105.02-1.11-1.64 5.86-8.76 7.35-10.89-34.04-.19-35.93-35.31-47.45-57.76C19.4 482.17-2.25 392.2.18 297.66c.34-13.22 13.15-26.63 21.58-39 9.25-13.6 19.77-26.4 30.47-38.92 3.23-3.79 9.22-5.08 13.37-8.26 4.72-3.61 11.42-7.35 12.72-12.24 6.79-25.67 30.18-36.64 45.98-54.22 7.14-7.94 14.28-16.33 22.89-22.44 27.03-19.19 54.58-37.67 82.46-55.61 3.25-2.09 11.71-1.01 14.52 1.82 92.11 92.72 203.33 152.27 327.17 190.47 5.78 1.78 9.98 8.71 14.7 13.04-.14-14.33 9.43-5.97 15.64-4.61 15.08 3.29 30.02 7.24 45.57 11.06-21.85-83.52-5.91-157.49 55.61-218.64C748.4 14.86 804.8-3.67 868.68.6 912.74 3.54 951.8 19.62 986 47.21c34.11 27.51 57.63 62.5 70.26 104.49 12.65 42.06 11.91 84.27-1.27 128.16l62.69-15.74c106.43-29.99 204.67-76.49 290.75-146.7 19.31-15.75 36.86-33.65 55.51-50.24 1.81-1.61 6.62-2.29 8.44-1.05 24.77 16.84 49.78 33.41 73.46 51.69 6.25 4.82 8.18 15.23 12.15 23.16 19.62-10.75 27 8.99 35.37 18.38 37.04 41.5 73.32 83.86 106.84 128.19 7.39 9.77 3.21 28.89 2.93 43.68-.26 14.27-1.09 28.79-4.16 42.64-1.75 7.87-8.5 14.64-12.65 21.34 20.62 8.66 3.48 23.14-.15 35.76-1.56 5.41-6.79 9.76-8.39 15.17-1.25 4.24.72 9.36.92 14.11.16 3.97.69 8.23-.43 11.9-30.68 100.57-81.21 188.44-163.12 256.62-12.28 10.22-22.12 12.48-37.78 6.4-74.46-28.92-152.46-44.41-231.11-56.64-107.24-16.68-215.21-24.74-323.65-27.78-5.3-.15-10.33-10.37-16.59-17.08 3.45-1.29 2.77-1.25 2.59-.94-10.32 18.33-26.89 17.06-45.28 17.83-106.89 4.51-214.13 6.75-320.41 17.85-82.52 8.62-163.76 29.34-245.71 43.85-8.3 1.47-17.61-2.77-27.36-4.53zm1239.62-110.08c1.08-4.74 1.64-11.07 3.98-16.66 4.1-9.8 9.48-19.05 13.99-28.69 28.53-60.99 45.62-125.22 53.22-191.96 1.45-12.69 3.26-27.11-1.3-38.17-3.65-8.84-1.55-26.43-19.73-25.43-.4.02-.81-.99-1.29-1.46l-85.85-83.45c-1.77-1.69-6.97-1.74-9.47-.44-42.15 21.94-83.08 46.54-126.37 65.88-68.74 30.7-141.56 49.35-215.55 62.73-19.71 3.56-40.09 5.37-60.06 4.73-8.66-.28-16.25-6-20.56 6.04-.4 1.12-2.62 2.12-4.08 2.25l-118.89 9.86c-2.35.18-4.86-1.83-7.3-2.82 1.62-2.63 2.6-6.55 4.94-7.7 64.7-31.72 98.61-96.68 86.5-166.33-16.59-95.45-122.85-152.85-209.77-113-58.61 26.87-91.32 73.26-92.58 137.28-1.28 65.16 30.6 112.78 89.09 142.24 2.18 1.1 2.98 4.96 4.42 7.54-2.26.94-4.57 2.78-6.79 2.68-90.32-3.83-179.64-15.31-267.46-37-99.14-24.49-193.99-59.39-279.18-117.26-1.23-.84-4.55-.36-5.74.75-25.41 23.73-51.25 47.04-75.76 71.67-22.52 22.64-48 44.88-34.9 82.88-12.5 10.58 1.23 17.44 2.81 26.35 13.34 75.14 37.15 146.27 76.07 212.07 8.21 13.87 12.71 27.49 37.28 23.75 77.55-11.81 155.63-21.83 233.88-26.9 108.94-7.05 218.23-12.75 327.34-12.19 147.29.77 294.65 5.86 441.76 13.4 77.73 3.98 154.97 17.22 232.49 25.77 4.79.53 11.25-2.04 14.87-5.39 7.41-6.88 13.41-15.27 19.98-23.01zm-383.43 215.8l-2.9-4.61-10.09 11.01-5.44-10.59-4.89 11.12-9.61-12.76c-5.22 3.42-5.35 4.05-10.42-.29-4.21-3.6-8.11-9.96-11.3-14.45-6.12-8.62-10.93-21.98-10.66-32.75.29-11.55 11.17-17.61 20.23-22.94 13.7-8.06 21.61-12.81 36.92-6.31l-4.66 8.71c16.91-1.37 29.62-6.7 36.04 14.25 6.55 21.39-13.04 42.44-23.22 59.6zm-16.23-48.95l2.68 6.42 25.36-8.35-3.78-10.33-24.26 12.26zm-12.25 6.16l2.61-6.52-24.76-11.85c-.96 3.58-3.07 10.15-2.7 10.29 8.12 3.12 16.51 5.54 24.85 8.08zm-94.66-6.74c-6.48 1.59-13.74 1.77-19.6 5.25-7.91 4.7-9.43 13.46-15.48 19.71-6.08 6.28-15.2 8.86-21.29 15.07-7.22 7.35-6.63 17.26-11.13 25.99 3.48-21.42-13.34-24.34-27.24-34.07-8.46-5.92-8.13-14.96-14.31-22.38-5.99-7.19-14.56-9.2-23.61-8.08 1.04-3.26 15.29-5.3 19.59-9.2 6.07-5.51 8.25-13.66 13.38-19.76 5.39-6.42 13.99-8.32 20.51-13.15 9.32-6.92 8.58-16.61 13.15-26.38-4.53 22.96 16.68 24.55 29.65 36.48 7.33 6.74 6.48 17.51 14.09 23.79 6.53 5.38 15.06 3.44 22.29 6.74zm-75.38-20.72l3.29-20.69-23.25 11.27 19.97 9.42zm-11.86 11.79l-9.59-20.16-10.71 23.61 20.31-3.45zm48.63-21.06l-23.2-11.02 3.78 20.18 19.42-9.16zm-58.34 58.73l10-21.01-18.23-1.02 8.23 22.04zm50.49-37.58l19.54 3-10.26-22.23-9.28 19.23zm-25.15 48.78l-4.49-18.73-19.02 7.87 23.51 10.85zm13.54-19.8l-3.45 19.31 21.85-10.43-18.39-8.87zm31.47-15.82l-18.74 5.1 7.77 17.78 10.97-22.88zm-365.15 56.81c-12.9 7.28-33.98-9.08-41.86-17.79-16.66-18.43-14.48-43.84-2.47-64.12 10.47-17.69 23.26-23.06 42.46-14.22 8.15 3.75 16.8 8.89 22.27 16.2 6.7 8.95 4.19 17.31 2.89 27.85-5.23-1.3-18.04-7.47-22.76-6.09-3.9 1.13-9.91 10.57-12.16 14.19-9.79 15.8 4.47 29.95 11.63 43.99zm-42.88-63.83l-2.47.21 7.42 38.63 2.11-.42-7.06-38.42zm11.3-2.2h-1.45v38.94h1.45v-38.94zm12.4 2.69l-2.53-.89-8.35 32.66 2.55.66 8.33-32.43zm172.15-22.28c1.89 4.14 3.73 5.09 2.04 9.3-1.65 4.11-8.91 8.23-12.14 11.1l-5.78 16.34c4.28 1.88 8.89-21.56 13.64-5.45l11.06-17.2 12.03 9.34c-1.77-9.73-6.08-15.2 4.63-18.71 11.14-3.65 16.2.58 20.12 11.66 4.05 11.44-8.98 20.63-17.19 27.22-11.26 9.03-24.46 13.29-38.38 16.33-6.44 1.41-26.05 8.91-30.24 2.4-2.02-3.15 3.67-19.47 4.54-23.89 1.57-7.92 2.89-16 4.94-23.81 2.73-10.43 7.47-21.25 17.4-26.66 12.12-6.6 19.18.37 28.98 6.94-5.55 7.17-6.4 6.87-15.66 5.08zM461.01 796c-.53 1.04.84-1.64 2.21-4.32l3.01-.04c0 10.97 3.54 23.83-1.02 32.36-4.39 8.21-16.49 14.25-26.4 17.15-17.3 5.05-30.46-7.53-43.71-15.94-8.54-5.42-5.08-21.08 4.54-25.88 21.13-10.55 20.71-10.21 6.41-27.99-2.42-3.01-1.06-11.4 1.49-15.46 2.95-4.68 9.15-7.32 12.63-9.87-.3 1.73.13 7.2-2.17 11.05-7.91 13.28 1.35 17.94 10.13 24.09 5.34 3.74 9.28 9.49 14.98 15.55-1.18-6.82-1.89-14.75-4.03-22.27-2-7.01-5.51-13.59-5.54-21.23l27.47 42.81zm-27.1 33.07l-3.89 2.3c-3.18-3.73-8.92-7.45-8.94-11.19-.02-5.93 3.8-11.87 7.95-23.11l-18.83 14.22c7.02 8.47 12.98 18.43 21.63 24.65 3.2 2.3 12.72-4.17 19.35-6.64l-1.41-3.5-15.87 9.1v-5.83zm833.5-15.77c2.82-8.59 6.94-36.11 16.98-36.91 4.68-.37 13.24 8.09 17.21 10.88 6.58 4.64 11.21 6.54 7.43 14.66-10.16 21.86-42.07 25.36-59.63 11.01-17.51-14.32-19.41-44.31-1.97-59.31 8.95-7.7 21.21.5 23.83 11.48 3.15 13.22-6.31 33.92-9.36 46.85l5.51 1.33zm-835.09-37.13c-23.54-10.06-1.08-32.63-6.39-48.16a446.06 446.06 0 0 1 6.39 48.16zm373.21-44.58l-20.68 3.84c3.43-4.26 6.19-9.63 10.59-12.27 2.01-1.2 7.25 3 11.03 4.75l-.93 3.68zM460.19 749.6c0 9.04 1.58 20.09-3.93 28.01V749.6h3.93zm911.52-326.34c0 6 .62 13-.11 19.85-2.94 27.6-15.74 51.08-36.99 67.6-9.95 7.74-26.13 7.22-39.26 11.17-21.06 6.34-13.4-9.33-13.86-18.05l-2.84-68.75c-.11-2.24-3.45-6.38-4.66-6.16-9.71 1.77-8.95-3.48-7.82-10.03 1.15-6.62-.75-15.29 2.84-19.61 5.13-6.17 13.64-11.79 21.43-13.02 16.29-2.57 33.55-4.88 49.45-2 12.17 2.21 22.87 12.57 33.41 18.83 4.78-7.23 9.64-21.85 19.7-28.16 16.39-10.27 36.18-15.11 54.53-22.24 2.05 7.57 6.52 15.42 5.66 22.64-1.92 16.02-17.29 8.7-26.27 12.84-7.88 3.63-17.48 7.26-21.92 13.86-9.45 14.02-2.87 25.67 14.28 28.52 20.89 3.48 38.27 11.58 40.96 35.15 2.08 18.2 4.48 40.98-14.32 49.22-16.79 7.35-38.12 4.96-57.44 4.92-1.9 0-4.19-13.59-5.13-21.02-.12-.95 6.79-3.58 10.62-4.08 10.83-1.42 21.83-1.64 32.56-3.51 2.28-.4 5.89-6.58 5.11-8.77-2.95-8.32-5.41-19.16-11.8-23.39-11.05-7.3-25.79-8.87-37.19-15.81-5.77-3.51-7.6-13.48-10.95-20.01zm-62.41-10.02c-7.16 8.17-7.13 13.5-6.95 24.78.18 10.99-.38 22.04-.09 33 .49 18.61 17.98 28.33 28.11 9.37 7.3-13.65 19.06-43.45 14.16-59.27-5.08-16.42-22.85-9.5-35.24-7.87zm-282.99 104.54c15.82-29.74 30.5-59.88 45.61-89.97 7.02-13.98 12.73-14.49 27.59-15.54 5.48-.39 14.2-2.71 19.54-.56 9.47 3.83 11.64 24.53 14.53 32.76 5.29 15.08 9.82 30.32 13.89 45.77 3.41 12.93 11.2 29.63-6.93 33.81-25.61 5.91-9.71-35.74-28.73-40.74-9.05-2.38-24.71-1.57-33.39 2.45-9.79 4.53-12.36 13.31-14.86 22.98-3.46 13.37-9.82 15.42-23.14 15.72-18.06.4-36.14.3-54.19-.27-12.88-.41-22.27.68-25.41-14.12-3.54-16.73.08-37.96.49-55.04l.62-25.23c.43-10.37.52-10.8 11.78-11.39 7.38-.39 14.69-2.67 17.83 4.56 2.79 6.4-.36 18.03-.71 24.83l-1.56 29.88c-.31 6.34-3.77 19.07 2.4 23.56 5.62 4.09 15.56-.13 22.06 1.15 9.27 1.83 8.65 7.71 12.59 15.4zm82.6-59.27c-6.17-27.53-15.5-3.75-25.43 0h25.43zM369.4 493.75c.31 7.12 4 21.69-1.38 27.36-3.78 3.99-15.04 4.26-20.14 2.36-12.34-4.6-7.94-25.4-7.88-35.25.15-24.41-.63-49.33-3.23-73.61-1.84-17.2-7.62-40.45 17.12-37.37 18.05 2.25 45.27 3.72 58.4 18.11 9.44 10.34 14.97 26.32 15.82 40.18.88 14.23-7.21 26.28-19.47 33.25-7.54 4.28-16.18 6.35-24.78 6.94-13.92.96-14.48 4.06-14.48 18.04zm9.94-78.17l-6.01 1.87c-1.5 9.03-7.41 20.86 2.29 26.78 9.38 5.73 15.27-6.76 20.97-13l-17.24-15.65zm809.15 34.89l-.24 68.2c-.04 2.04-3.74 5.94-5.16 5.69-5.62-1-15.73-3.16-15.79-5.15-1.12-35.72-1.09-71.48-.96-107.22 0-1.8 2.82-4.27 4.88-5.2 2.11-.96 5.19.26 7.36-.64 21.95-9.04 25.51 5.51 30.12 21.67 4.67 16.35 12.03 31.94 19.52 51.23l2.76-50.57c.39-8.48-.08-17.02.79-25.44.25-2.39 3.41-5.55 5.93-6.46 15.17-5.5 18.5 1.05 17.74 15.72-1.85 35.7-2.12 71.47-3.12 107.21-.06 2.09-.32 5.26-1.6 5.99-2.54 1.45-6.18 2.73-8.78 1.99-9.06-2.56-22.63-3.47-25.91-9.59-10.64-19.89-17.48-41.81-27.54-67.41zm-911.43 75.04c-5.17-2.67-18.41-5.31-19.88-11-5.6-21.67-4.19-21.51 24.42-20.84 6.85.16 18.61-3.02 19.81-7.1 3.15-10.71 1.01-21.23-11.83-28.15-14.43-7.77-30.3-16.43-39.76-29.03-15.42-20.54-7.19-60.13 13.82-65.08 17.56-4.14 37.95 1.99 56.56 6 2.46.53 2.13 15.39 2.04 23.6 0 .63-8.5 2.15-12.81 1.54-7.34-1.04-14.69-5.37-21.66-4.65-5.33.55-13.77 6.33-14.26 10.55-.86 7.36.96 17.93 5.94 22.45 9.12 8.29 23.51 11.16 31.72 19.99 9.21 9.9 17.22 23.24 19.9 36.29 2.99 14.58-.2 31.57-16.92 38.5-9.94 4.12-21.56 4.21-37.09 6.93zm301.66-67.49l-.2 60.69c-.04 2.05-3.24 5.97-4.38 5.76-5.76-1.06-16.12-2.94-16.23-5-1.86-34.98-2.49-70.02-3.14-105.05-.03-1.62 2.33-4.75 3.47-4.7 9.77.41 19.73.51 29.15 2.76 2.8.67 4.28 7.75 5.98 12.05l21.9 55.87c.36.91.75 1.81 5.1 1.66l.16-61.1c.03-2.39 2.94-6.94 3.41-6.8 6.75 2.02 18.97 4.5 19.05 7.21.85 26.2-.4 52.46-.92 78.71-.14 7.26.39 14.54.08 21.79-.08 1.81-1.84 4.54-3.46 5.14-14.06 5.19-31.97-3.47-37.48-17-6.86-16.87-14.43-33.45-22.49-51.98zm310.71 16.95c-1.87 12.92-4.72 22.71-4.32 32.36.47 11.32-4.76 13.03-14.19 14.92-16.66 3.34-16.66-4.58-15.51-17.19 2.11-23.13 3.69-46.41 3.54-69.61-.08-11.79 2.33-16.16 14.62-15.02 22.32 2.07 44.86 2.19 66.97 5.42 2.64.39 5.64 15.62 4.01 22.99-1.61 7.27-7.6 15.3-13.98 19.4-10.93 7.01-4.56 11.7-.33 17.8l23.22 34.37c-1.48.99-2.83 2.51-4.45 2.89-23.9 5.65-34.02-10.23-43.73-27.55-3.77-6.72-9.38-12.41-15.86-20.77zm9.13-16.22l15.24-11.18c-6.28-2.3-12.49-4.95-18.97-6.32-.63-.13-3.47 7.53-4.11 11.75-.18 1.16 3.9 2.96 7.83 5.75zm-52.93 27.92c-11.66-1.18-25.44-4.79-37.1-3.35-7.33.91-13.56 9.54-6.72 16.14 10.72 10.33 51.95-11.55 42.16 17.73-3.4 10.16-16.02 6.74-25.62 6.41l-36.15-1.16c-12.97-.21-21.18 1.21-21.92-13.37-.64-12.48.27-25.2.7-37.68.43-12.4.24-25.23 2.01-37.53 2.11-14.72 11.48-12.28 24.37-12.06l38.93 1.14c10.86.46 23.08-1.49 19.81 12.72-3.04 13.18-10.82 13.54-22.75 12.9-5.79-.31-23.28-5.28-25.5 3.32-3.47 13.5 18.93 13.34 25.95 14.32 14.66 2.04 16.12 7.81 21.81 20.47zm-128.65-27.16c2.28 15.55 5.38 31.04 6.42 46.67.39 5.87-3.96 12.06-6.15 18.1-8.07-5.41-24.86 6.01-25.35-15.02-.49-20.63-3.92-41.24-7.17-61.68-.43-2.7-7.33-5.98-11.39-6.21-20-1.13-26.67-6.98-21.42-20.4.57-1.45 2.69-3.31 4.05-3.27l92.29 3.01c2.29.1 6.5 4.27 6.38 4.47-3.43 5.69-8.34 16.27-10.95 15.75-19.31-3.83-25.49-.09-26.71 18.58zm-221.93 39.7c1.21 4.53 3.34 10.93 4.19 17.49.11.86-6.23 3.36-9.73 3.74-11.83 1.31-23.89 1.15-35.57 3.19-14.03 2.45-16.68-6.41-18.19-16.41-1.32-8.77-2.18-17.72-1.98-26.57.33-14.32 2.2-28.62 2.46-42.94.26-13.88-1.01-27.78-.76-41.66.04-2.29 4.5-6.49 6.85-6.44 21.19.39 24.46 4.76 23.23 25.1-1.45 24.06-1.64 48.2-2.89 72.27-.43 8.31 2.14 11.43 10.62 10.64 5.38-.5 10.93.71 21.76 1.59zm336.12-246.68l19.07 35.77 19.01-35.65 18.87 35.21 19.3-58.73c5.7 17.73 11.9 32.23 14.13 47.32.56 3.82-11.43 13.44-17.9 13.68-35.56 1.37-71.21 1.31-106.79.34-14.36-.39-20.09-10.85-15.85-24.16l12.1-37.03 19.31 58.67 18.76-35.43z"/><path d="M850.27 140.55l-19.09 35.66-18.78-35.24-19.35 58.74c-5.71-17.78-12.06-32.3-14.07-47.41-.52-3.92 12.39-13.58 19.42-13.88 34.57-1.47 69.25-1.15 103.86-.45 15.06.31 21.4 11.3 16.73 25.57l-11.55 36.19-19.36-58.77-18.83 35.3-18.99-35.72zM509 461.93c0-21.08-1.66-41.86 3.91-62.25 17.27 4.8 24.59-.37 23.82 22.34-.85 24.93.08 49.86.18 74.8.04 9.41 1.7 19.75-8.39 24.21-5.28 2.33-14.49 2.29-18.89-1.79-5.3-4.91-3.54-12.91-2.78-19.13 1.56-12.85.46-25.28.46-38.17h1.7z"/></svg>