<svg xmlns="http://www.w3.org/2000/svg" viewBox="0 0 1000 914.7" xmlns:v="https://vecta.io/nano"><path d="M0 727.6v111.6c0 45.3 30.9 74.2 75.9 74.2 47.3 0 76.3-30.5 76.3-77.3V727.6h-40.1v106.5c0 25.5-12.9 41.3-35.8 41.3-25.2 0-36.3-18.2-36.3-39.3V727.6H0zm171.7 1.6v182.5h63.8c35.3 0 65.4-18 65.4-53.8 0-37.3-32.7-45.6-32.7-45.6s24.2-6.7 24.2-38.6-30.6-44.5-56.9-44.5h-63.8zm40.3 34.6h19.4c13.4 0 22 7.1 22 19.4 0 11-7.3 19.3-21 19.3H212v-38.7h0zm0 67.3h21.4c20.1 0 27.1 10.3 27.1 22.7 0 14.4-9 22.8-25.1 22.8H212v-45.5h0zm104-102h40.3v182.5H316V729.1zm439.4 182.5h-40.3V729.1h126.4v37.7h-86.1v41.8h78.5v30.6h-78.5v72.4zm100.9-182.5v37.7h52v144.8H949V766.9h51v-37.7H856.3zM402.2 850.9l-32 23.4s11.1 40.4 66.5 40.4c36.9 0 64.1-21.5 64.1-59.4 0-61-85.3-48.1-85.3-79.4 0-8.3 7.3-15.6 20.9-15.6 21.7 0 30 21.3 30 21.3l32-22.5s-12.5-33.3-60.4-33.3c-39.4 0-60.3 25.3-60.3 51.3 0 62.2 82.8 48.7 82.8 81.3 0 11-8.7 19.1-22.2 19-26.8.2-36.1-26.5-36.1-26.5h0zm202.5-125.1c-47.4 0-68.6 25.7-68.6 25.7l6.1 6.1s-30.7 21.8-30.7 68.6c0 53.8 41.5 88.4 93.3 88.4 60.2 0 94.4-44.4 94.4-94.4.1-53.1-38.9-94.4-94.5-94.4h0zm.9 37.9c32.2 0 53 24.6 53 56.5 0 31.6-20.6 56.8-53 56.8-32 0-53-22.4-53-52 0-27 18.3-38.8 18.3-38.8l-6.6-6.6c-.1 0 14-15.9 41.3-15.9zM481.5 0c-206.8 0-296 184.1-296 184.1l26.3 18.8s-33.1 62.9-32.1 143.5c0 164.6 131.1 319.7 324 319.7 175.3 0 320-142.7 320-319.3C823.6 116.4 644.9 0 481.5 0h0zm1.8 56.2c161.6 0 286.9 130.2 286.9 281.6 0 160.5-120.7 272-261.3 272C405.4 609.8 312 531 312 422.9c0-62.4 33.2-105.9 70.3-129.1l5.4 5.9c-10.2 8-39.2 54.6-39.2 100.4 0 85 66.7 143.9 150.7 143.9 107 0 178.4-91.3 178.4-197.2 0-123.3-108.8-228-239.8-228-72.4 0-133.9 31.2-169.3 58.7l-5.5-5c46.4-71.4 126.4-116.3 220.3-116.3zm-48.2 117.9c83.6 0 165.2 55.3 185.5 133.8l-7.4 2.8c-36.6-48.3-96.5-88.3-167.3-88.3-130.2 0-198.6 118.3-188.6 217.1l-7.7 2.8s-14.4-31.7-14.4-69.4c.2-108.9 89.7-198.8 199.9-198.8h0zm55.2 136.8c39.6 0 71.2 32.1 71.2 70.1 0 31.5-20.2 50.2-20.2 50.2l24 16.8s-23.8 37.3-72.3 37.3c-46.4 0-87.4-37.4-87.4-87.8 0-51.9 44.6-86.6 84.7-86.6h0z" fill="#fff"/></svg>