<svg id="Layer_1" data-name="Layer 1" xmlns="http://www.w3.org/2000/svg" viewBox="126.4 167.38 1808.73 212.13">
  <defs>
    <style>
      .cls-1 {
        fill: #fff;
      }
    </style>
  </defs>
  <path class="cls-1" d="m238.38,369.16v-.4c0-1.82,1.15-3.37,2.81-4.08,4.48-1.9,4.61,2.33,7.77-1.47l3.54-4.62.31-.4c1.34-1.63,6.09-7.92,7.28-9.87l70.53-97.26,45.33-61.1,8.63-11.81.08-.08h-.08l.04-.06,4.88-6.01c.22,0,.45.02.66.05.02,0,.03,0,.05,0,.84.21,1.66.62,2.31,1.18.04.05.09.09.12.12.47.49.82,1.08,1.02,1.77l.86,3.01.12.43,42.19,144.7c1.62,5.51,3.29,10.58,5.11,15.18.87,2.29,1.82,4.43,2.77,6.5,4,8.2,8.8,14.42,15.45,18.19.96.51,1.91.99,2.9,1.42.08.05.12.09.2.12,1.06-.32,2.22-1.11,4.67-.08,1.66.71,2.81,2.25,2.81,4.08v.39c0,2.38-1.94,4.32-4.32,4.32l-12-.04h-64.9c-2.01,0-3.76-1.38-4.24-3.33l-5.86-25.08-2.95-12.59-10.09-54.54c-.67-3.44-1.47-6.89-2.18-10.14-.35-1.51-1.27-4.65-2.46-5.4-.08-.09-.2-.2-.28-.2-3.44-3.29-7.68,2-7.68,2l7.8,44.18-5.32,6.2-.02.02-.09.12h0s-41.6,56.36-41.6,56.36c-1.12,1.52-2.9,2.41-4.78,2.41h-19.03l-32.82.09-15.25.04c-2.37,0-4.32-1.95-4.32-4.32Z"/>
  <path class="cls-1" d="m358.42,176.31v.4c0,1.82-1.15,3.36-2.81,4.07-4.47,1.9-4.6-2.33-7.76,1.47l-3.53,4.62-.31.4c-1.34,1.63-6.08,7.91-7.27,9.86l-70.41,97.11-45.26,61-8.62,11.79-.08.08h.08l-.04.06-4.88,6c-.22,0-.45-.02-.66-.05-.02,0-.03,0-.05,0-.84-.21-1.66-.62-2.31-1.18-.04-.05-.09-.09-.12-.12-.47-.49-.81-1.08-1.02-1.76l-.86-3.01-.12-.43-42.13-144.47c-1.62-5.5-3.29-10.57-5.11-15.15-.87-2.29-1.82-4.43-2.77-6.48-3.99-8.19-8.78-14.4-15.42-18.16-.96-.51-1.91-.99-2.89-1.42-.08-.05-.11-.09-.2-.12-1.06.32-2.21,1.11-4.66.08-1.66-.71-2.81-2.25-2.81-4.07v-.39c0-2.38,1.93-4.31,4.31-4.31l11.98.04h64.8c2.01,0,3.75,1.38,4.23,3.32l5.85,25.04,2.95,12.57,10.08,54.45c.67,3.44,1.47,6.88,2.17,10.12.35,1.5,1.26,4.65,2.45,5.39.08.09.2.2.28.2,3.44,3.29,7.67-1.99,7.67-1.99l-7.79-44.11,5.31-6.19.02-.02.09-.12h0s41.54-56.27,41.54-56.27c1.12-1.52,2.89-2.41,4.78-2.41h19l32.77-.09,15.22-.04c2.37,0,4.31,1.94,4.31,4.31Z"/>
  <path class="cls-1" d="m691.35,373.22h-51.45l-94.62-104.91v104.91h-59.74v-150.08c0-21.73-3.43-37.16-19.15-42.02v-7.72h76.04l89.47,100.34v-100.34h59.46v199.81Z"/>
  <path class="cls-1" d="m905.61,363.51c-16.01,10.58-51.17,15.72-77.75,15.72-68.32,0-122.63-40.88-122.63-106.34s54.31-105.2,122.63-105.2c26.58,0,52.31,4.86,68.03,16.01v48.31c-11.72-10-34.87-18.29-56.31-18.29-36.02,0-64.6,22.58-64.6,59.46s23.73,59.46,58.03,59.46c2.57,0,7.72-.29,10.58-.57v-28.3h-28.3v-40.59h90.33v100.34Z"/>
  <path class="cls-1" d="m1135.3,173.41l-.29,119.49c0,54.31-36.88,85.76-101.19,85.76s-101.48-31.44-101.48-85.76l-.29-69.75c0-21.73-3.43-37.45-19.15-42.31v-7.43h84.04l.29,120.35c0,9.43,2.57,39.73,36.88,39.73,23.16,0,37.16-14.86,37.16-39.73l-.29-120.35h64.32Z"/>
  <path class="cls-1" d="m1559.94,373.22h-71.46l-20.3-40.59c-18.01-36.3-23.15-37.16-32.59-37.16h-5.15v77.75h-64.6v-150.08c0-21.73-3.43-37.45-19.15-42.31v-7.43h115.49c41.45,0,68.03,23.73,68.03,60.32,0,18.87-13.15,39.45-34.02,44.59,12.29,5.72,20.58,19.44,28.59,33.45l35.16,61.46Zm-118.63-160.08h-10.86v43.74h10.86c15.15,0,24.01-8,24.01-22.01s-8.86-21.72-24.01-21.72Z"/>
  <path class="cls-1" d="m1667.14,373.51l-92.9-.29v-150.08c0-21.73-3.43-37.45-19.15-42.31v-7.43h112.06c72.89,0,104.91,50.31,104.91,100.05s-32.87,100.05-104.91,100.05Zm-13.72-158.08h-14.87v115.2h14.87c45.74,0,50.6-40.31,50.6-57.46s-4.86-57.74-50.6-57.74Z"/>
  <path class="cls-1" d="m1852.23,379.51c-27.73,0-52.6-6.58-64.03-15.72l-.29-56.6c12.58,14.29,33.45,27.73,55.17,27.73,20.58,0,25.44-7.43,26.01-14.29,0-.57.29-1.14.29-1.72,0-5.72-3.43-12.29-18.01-19.72-13.44-6.58-22.58-11.15-30.59-15.15-22.01-11.72-35.16-28.01-35.16-55.74,0-32.59,27.73-60.89,82.9-60.89,30.3,0,46.88,7.43,57.17,14.87v51.45c-10.29-9.43-28.01-21.15-49.45-21.15-20.01,0-23.44,6.29-24.3,11.72v1.71c0,4.57,2.57,10,16.29,17.72,16.87,8.86,26.3,14.29,35.73,19.72,9.43,5.72,31.16,19.72,31.16,54.31s-30.02,61.75-82.9,61.75Z"/>
  <path class="cls-1" d="m1117.77,369.51v-.4c0-1.82,1.15-3.36,2.8-4.06,4.47-1.89,4.59,2.32,7.75-1.46l3.53-4.61.31-.4c1.34-1.63,6.07-7.9,7.26-9.84l70.29-96.94,45.18-60.89,8.61-11.77.08-.08h-.08l.04-.06,4.87-5.99c.22,0,.45.02.66.05.02,0,.03,0,.05,0,.84.21,1.65.62,2.3,1.18.04.05.09.09.12.12.47.49.81,1.08,1.01,1.76l.86,3,.12.43,42.06,144.22c1.62,5.49,3.28,10.55,5.1,15.13.87,2.29,1.82,4.42,2.76,6.47,3.99,8.18,8.77,14.37,15.4,18.13.96.51,1.9.98,2.89,1.42.08.05.11.09.2.12,1.06-.32,2.21-1.11,4.66-.08,1.65.71,2.8,2.25,2.8,4.06v.39c0,2.37-1.93,4.3-4.3,4.3l-11.96-.04h-64.69c-2.01,0-3.75-1.38-4.23-3.32l-5.84-25-2.95-12.55-10.06-54.36c-.67-3.43-1.46-6.87-2.17-10.11-.35-1.5-1.26-4.64-2.45-5.38-.08-.09-.2-.2-.28-.2-3.43-3.28-7.66,1.99-7.66,1.99l7.77,44.03-5.3,6.18-.02.02-.09.11h0s-41.46,56.17-41.46,56.17c-1.12,1.51-2.89,2.41-4.77,2.41h-18.96l-32.71.09-15.19.04c-2.36,0-4.3-1.94-4.3-4.3Z"/>
</svg>